<svg width="44" height="43" viewBox="0 0 44 43" fill="none" xmlns="http://www.w3.org/2000/svg">
<rect x="0.5" width="43" height="43" rx="21.5" fill="#154A34"/>
<path d="M30.5183 11.9175C29.8121 11.9175 29.2396 12.49 29.2396 13.1961V29.8041C29.2396 30.5102 29.8121 31.0827 30.5183 31.0827C31.2245 31.0827 31.797 30.5102 31.797 29.8041V13.1961C31.797 12.49 31.2245 11.9175 30.5183 11.9175ZM26.2582 17.8132C25.5532 17.8132 24.9816 18.3847 24.9816 19.0897V29.8062C24.9816 30.5112 25.5532 31.0827 26.2582 31.0827C26.9632 31.0827 27.5348 30.5112 27.5348 29.8062V19.0897C27.5348 18.3847 26.9632 17.8132 26.2582 17.8132ZM21.996 22.2392C21.2886 22.2392 20.7152 22.8126 20.7152 23.5199V29.802C20.7152 30.5093 21.2886 31.0827 21.996 31.0827C22.7033 31.0827 23.2767 30.5093 23.2767 29.802V23.5199C23.2767 22.8126 22.7033 22.2392 21.996 22.2392ZM17.7359 25.187C17.0297 25.187 16.4572 25.7595 16.4572 26.4657V29.8041C16.4572 30.5102 17.0297 31.0827 17.7359 31.0827C18.4421 31.0827 19.0145 30.5102 19.0145 29.8041V26.4657C19.0145 25.7595 18.4421 25.187 17.7359 25.187ZM13.4796 27.3328C12.7741 27.3328 12.2021 27.9047 12.2021 28.6102V29.8053C12.2021 30.5108 12.7741 31.0827 13.4796 31.0827C14.185 31.0827 14.757 30.5108 14.757 29.8053V28.6102C14.757 27.9047 14.185 27.3328 13.4796 27.3328Z" fill="#00EA48"/>
</svg>
