<svg width="64" height="64" viewBox="0 0 64 64" fill="none" xmlns="http://www.w3.org/2000/svg">
<rect width="64" height="64" rx="12" fill="#154A34"/>
<path d="M18.667 42.6665H45.3337V45.3332H18.667V42.6665ZM21.3337 31.9998H24.0003V41.3332H21.3337V31.9998ZM28.0003 31.9998H30.667V41.3332H28.0003V31.9998ZM33.3337 31.9998H36.0003V41.3332H33.3337V31.9998ZM40.0003 31.9998H42.667V41.3332H40.0003V31.9998ZM18.667 25.3332L32.0003 18.6665L45.3337 25.3332V30.6665H18.667V25.3332ZM32.0003 26.6665C32.3539 26.6665 32.6931 26.526 32.9431 26.276C33.1932 26.0259 33.3337 25.6868 33.3337 25.3332C33.3337 24.9795 33.1932 24.6404 32.9431 24.3904C32.6931 24.1403 32.3539 23.9998 32.0003 23.9998C31.6467 23.9998 31.3076 24.1403 31.0575 24.3904C30.8075 24.6404 30.667 24.9795 30.667 25.3332C30.667 25.6868 30.8075 26.0259 31.0575 26.276C31.3076 26.526 31.6467 26.6665 32.0003 26.6665Z" fill="#00EA48"/>
</svg>
