<svg width="47" height="43" viewBox="0 0 47 43" fill="none" xmlns="http://www.w3.org/2000/svg">
<rect x="0.5" width="46" height="43" rx="21.5" fill="#154A34"/>
<path d="M13.5 22C13.5 23.1819 13.7328 24.3522 14.1851 25.4442C14.6374 26.5361 15.3003 27.5282 16.136 28.364C16.9718 29.1997 17.9639 29.8626 19.0558 30.3149C20.1478 30.7672 21.3181 31 22.5 31C23.6819 31 24.8522 30.7672 25.9442 30.3149C27.0361 29.8626 28.0282 29.1997 28.864 28.364C29.6997 27.5282 30.3626 26.5361 30.8149 25.4442C31.2672 24.3522 31.5 23.1819 31.5 22C31.5 20.8181 31.2672 19.6478 30.8149 18.5558C30.3626 17.4639 29.6997 16.4718 28.864 15.636C28.0282 14.8003 27.0361 14.1374 25.9442 13.6851C24.8522 13.2328 23.6819 13 22.5 13C21.3181 13 20.1478 13.2328 19.0558 13.6851C17.9639 14.1374 16.9718 14.8003 16.136 15.636C15.3003 16.4718 14.6374 17.4639 14.1851 18.5558C13.7328 19.6478 13.5 20.8181 13.5 22Z" stroke="#00EA48" stroke-width="2" stroke-linecap="round" stroke-linejoin="round"/>
<path d="M22.5 17L27.26 20.45M22.5 17L17.74 20.45M22.5 17V13M27.26 20.45L25.5 26M27.26 20.45L31 19M25.5 26H19.5L17.74 20.45M25.5 26L28 29M17.74 20.45L14 19M19.56 26.05L17 29" stroke="#00EA48" stroke-width="2" stroke-linecap="round" stroke-linejoin="round"/>
</svg>
