<svg width="72" height="72" viewBox="0 0 72 72" fill="none" xmlns="http://www.w3.org/2000/svg">
<rect width="72" height="72" rx="36" fill="#0D2E22"/>
<path fill-rule="evenodd" clip-rule="evenodd" d="M24.9977 24.5918C24.1973 25.2214 24.2146 24.9686 24.2149 36.0309C24.2151 45.4514 24.2339 46.2625 24.4634 46.7218C24.9696 47.7351 24.7928 47.7155 33.3889 47.7156L41.072 47.7159L41.5526 47.3921C42.1808 46.9686 42.3875 46.5317 42.39 45.6212L42.3921 44.8757H40.9876L40.9443 45.5502L40.901 46.2248L33.3419 46.2615L25.7827 46.2983L25.7052 45.9775C25.6624 45.801 25.6451 41.1833 25.6666 35.7159L25.7058 25.7751L31.0667 25.7379L36.4276 25.7006V27.2785C36.4276 29.8985 36.6615 30.1441 39.2324 30.2237L40.972 30.2777V34.6508H42.3921V29.4759L39.7962 26.8799L37.2002 24.2839H31.2946C25.4515 24.2839 25.3849 24.2872 24.9977 24.5918ZM35.051 35.8454L34.6525 36.1879L34.6099 39.6836L34.5673 43.1792L34.9895 43.6014L35.4117 44.0236H41.0392C45.8696 44.0236 46.7275 43.9921 47.0967 43.8012C47.8346 43.4196 47.9306 42.9457 47.9306 39.6827C47.9306 36.4859 47.8308 35.9812 47.136 35.6646C46.8897 35.5523 45.0498 35.5029 41.1153 35.5029H35.4495L35.051 35.8454ZM35.7176 37.0633V37.491H46.8134L46.7684 37.1005L46.7235 36.71L41.2205 36.6728L35.7176 36.6357V37.0633ZM27.4809 38.7691V39.1952H33.0194V38.3431H27.4809V38.7691ZM35.7176 41.114V42.8908L41.2205 42.8537L46.7235 42.8165L46.7634 41.0768L46.8033 39.3372H35.7176V41.114ZM27.4809 40.6153V41.0413H33.0194V40.1893H27.4809V40.6153ZM27.4809 42.4615V42.8875H31.1732V42.0354H27.4809V42.4615Z" fill="#00EA48"/>
<path d="M32.9521 31.5376C33.0992 31.5376 33.2184 31.6568 33.2184 31.8039C33.2184 31.951 33.0992 32.0703 32.9521 32.0703H28.0515C27.9044 32.0703 27.7852 31.951 27.7852 31.8039C27.7852 31.6568 27.9044 31.5376 28.0515 31.5376H32.9521ZM32.9521 32.6882C33.0992 32.6882 33.2184 32.8074 33.2184 32.9545C33.2184 33.1016 33.0992 33.2208 32.9521 33.2208H28.0515C27.9044 33.2208 27.7852 33.1016 27.7852 32.9545C27.7852 32.8074 27.9044 32.6882 28.0515 32.6882H32.9521ZM32.2955 29.5454C32.5213 29.5454 32.7044 29.7284 32.7044 29.9542V34.5018C32.7044 34.7769 32.4813 35 32.2062 35C32.0428 35 31.8898 34.9198 31.7967 34.7856L29.1821 31.0131C29.1763 31.0047 29.1666 30.9996 29.1563 30.9996C29.1389 30.9996 29.1248 31.0137 29.1248 31.0311V34.5871C29.1248 34.8151 28.94 35 28.712 35C28.484 35 28.2992 34.8151 28.2992 34.5871V30.047C28.2992 29.77 28.5237 29.5454 28.8007 29.5454C28.9653 29.5454 29.1195 29.6262 29.2131 29.7615L31.8262 33.5368C31.8324 33.5457 31.8426 33.5511 31.8535 33.5511C31.8719 33.5511 31.8867 33.5362 31.8867 33.5179V29.9542C31.8867 29.7284 32.0698 29.5454 32.2955 29.5454Z" fill="#00EA48"/>
</svg>
