<svg width="33" height="32" viewBox="0 0 33 32" fill="none" xmlns="http://www.w3.org/2000/svg">
<path d="M3.16699 16.0002C3.16699 10.9722 3.16699 8.4575 4.72966 6.89616C6.29233 5.33483 8.80566 5.3335 13.8337 5.3335H19.167C24.195 5.3335 26.7097 5.3335 28.271 6.89616C29.8323 8.45883 29.8337 10.9722 29.8337 16.0002C29.8337 21.0282 29.8337 23.5428 28.271 25.1042C26.7083 26.6655 24.195 26.6668 19.167 26.6668H13.8337C8.80566 26.6668 6.29099 26.6668 4.72966 25.1042C3.16833 23.5415 3.16699 21.0282 3.16699 16.0002Z" stroke="white" stroke-width="1.5"/>
<path d="M13.8337 21.3335H8.50033M19.167 21.3335H17.167M3.16699 13.3335H29.8337" stroke="white" stroke-width="1.5" stroke-linecap="round"/>
</svg>
