<svg width="65" height="64" viewBox="0 0 65 64" fill="none" xmlns="http://www.w3.org/2000/svg">
<rect x="0.5" width="64" height="64" rx="32" fill="#00EA48"/>
<path d="M19.168 32.0002C19.168 26.9722 19.168 24.4575 20.7306 22.8962C22.2933 21.3348 24.8066 21.3335 29.8346 21.3335H35.168C40.196 21.3335 42.7106 21.3335 44.272 22.8962C45.8333 24.4588 45.8346 26.9722 45.8346 32.0002C45.8346 37.0282 45.8346 39.5428 44.272 41.1042C42.7093 42.6655 40.196 42.6668 35.168 42.6668H29.8346C24.8066 42.6668 22.292 42.6668 20.7306 41.1042C19.1693 39.5415 19.168 37.0282 19.168 32.0002Z" fill="white" stroke="white" stroke-width="1.5"/>
<path d="M29.8346 37.3335H24.5013M35.168 37.3335H33.168M19.168 29.3335H45.8346" stroke="#00EA48" stroke-width="1.5" stroke-linecap="round"/>
</svg>
