<svg width="72" height="72" viewBox="0 0 72 72" fill="none" xmlns="http://www.w3.org/2000/svg">
<rect width="72" height="72" rx="36" fill="#0D2E22"/>
<g clip-path="url(#clip0_7_7804)">
<path fill-rule="evenodd" clip-rule="evenodd" d="M40.2721 24.7713C38.8719 25.4137 37.4832 26.8948 36.7563 28.5205L36.1316 29.9178H29.7549C23.5379 29.9178 23.365 29.9362 22.8662 30.6486C22.1071 31.7323 22.1071 45.8568 22.8662 46.9404L23.3778 47.6712L34.6196 47.6663C40.8024 47.6633 46.0239 47.5525 46.2228 47.4197C47.1312 46.8131 47.3406 45.5737 47.3406 40.8082C47.3406 37.5672 47.4649 35.7975 47.7033 35.6502C47.9025 35.5272 48.4173 34.6678 48.847 33.7404L49.6282 32.0548L49.7341 38.9589L49.8402 45.863L49.8232 37.9726C49.8064 30.1318 49.8008 30.0703 48.9315 28.2158C47.7486 25.6922 46.0578 24.5576 43.2748 24.4192C42.0524 24.3583 40.8702 24.4971 40.2721 24.7713ZM40.837 26.5193C38.5126 27.6651 37.4855 30.8663 38.6924 33.2055C39.4808 34.7342 41.7716 35.9356 43.4901 35.7212C48.1931 35.135 49.2662 28.825 45.0445 26.5815C43.643 25.8368 42.2635 25.8164 40.837 26.5193ZM42.0955 27.7624C41.2075 28.8325 42.6771 30.1197 43.6621 29.1347C44.0806 28.7158 44.1236 28.4591 43.8478 28.0211C43.3678 27.2591 42.6067 27.1466 42.0955 27.7624ZM42.0804 32.3836C42.0804 34.4439 42.1099 34.5205 42.9023 34.5205C43.6946 34.5205 43.7242 34.4439 43.7242 32.3836C43.7242 30.3232 43.6946 30.2466 42.9023 30.2466C42.1099 30.2466 42.0804 30.3232 42.0804 32.3836ZM22.4957 38.7945C22.4957 43.0438 22.5427 44.782 22.5999 42.6575C22.6571 40.5327 22.6571 37.056 22.5999 34.9315C22.5427 32.8067 22.4957 34.5452 22.4957 38.7945ZM24.3269 33.0335V34.5205H30.7379C34.2639 34.5205 37.1465 34.4834 37.1439 34.4383C37.1413 34.3933 36.9332 33.7644 36.6817 33.0411L36.2244 31.726L30.2756 31.6363L24.3269 31.5468V33.0335ZM24.3269 41.0959V46.0274H45.368V37.273L43.4138 37.4143C41.8893 37.5248 41.143 37.4028 40.0223 36.86C38.6944 36.2173 38.0438 36.1644 31.4559 36.1644H24.3269V41.0959ZM25.9708 39.1233V40.1096H31.231V38.137H25.9708V39.1233ZM25.9708 43.0685V44.0755L29.8338 43.9831L33.6968 43.8904V42.2466L29.8338 42.1539L25.9708 42.0615V43.0685Z" fill="#00EA48"/>
</g>
<defs>
<clipPath id="clip0_7_7804">
<rect width="27.2877" height="24" fill="white" transform="translate(22.3555 24)"/>
</clipPath>
</defs>
</svg>
