<svg width="72" height="72" viewBox="0 0 72 72" fill="none" xmlns="http://www.w3.org/2000/svg">
<rect width="72" height="72" rx="36" fill="#0D2E22"/>
<path d="M45 34.5H37.5V33H45V34.5ZM46 27C47.1046 27 48 27.8954 48 29V38.5664C47.7812 38.293 47.5508 38.0352 47.3086 37.793C47.0664 37.5508 46.7969 37.332 46.5 37.1367V28.5H25.5V43.5H36.082C36.1055 43.7578 36.1445 44.0117 36.1992 44.2617C36.2539 44.5117 36.3242 44.7578 36.4102 45H26C24.8954 45 24 44.1046 24 43V29C24 27.8954 24.8954 27 26 27H46ZM27 40.5C27 40.0938 27.0547 39.6992 27.1641 39.3164C27.2734 38.9336 27.4297 38.5703 27.6328 38.2266C27.8359 37.8828 28.082 37.5703 28.3711 37.2891C28.6602 37.0078 28.9844 36.7695 29.3438 36.5742C29.0781 36.3008 28.8711 35.9844 28.7227 35.625C28.5742 35.2656 28.5 34.8906 28.5 34.5C28.5 34.0859 28.5781 33.6992 28.7344 33.3398C28.8906 32.9805 29.1055 32.6602 29.3789 32.3789C29.6523 32.0977 29.9688 31.8828 30.3281 31.7344C30.6875 31.5859 31.0781 31.5078 31.5 31.5C31.9141 31.5 32.3008 31.5781 32.6602 31.7344C33.0195 31.8906 33.3398 32.1055 33.6211 32.3789C33.9023 32.6523 34.1172 32.9688 34.2656 33.3281C34.4141 33.6875 34.4922 34.0781 34.5 34.5C34.5 34.8906 34.4258 35.2656 34.2773 35.625C34.1289 35.9844 33.9219 36.3008 33.6562 36.5742C34.0156 36.7695 34.3398 37.0078 34.6289 37.2891C34.918 37.5703 35.1641 37.8789 35.3672 38.2148C35.5703 38.5508 35.7266 38.9141 35.8359 39.3047C35.9453 39.6953 36 40.0938 36 40.5H34.5C34.5 40.0859 34.4219 39.6992 34.2656 39.3398C34.1094 38.9805 33.8945 38.6602 33.6211 38.3789C33.3477 38.0977 33.0312 37.8828 32.6719 37.7344C32.3125 37.5859 31.9219 37.5078 31.5 37.5C31.0859 37.5 30.6992 37.5781 30.3398 37.7344C29.9805 37.8906 29.6602 38.1055 29.3789 38.3789C29.0977 38.6523 28.8828 38.9688 28.7344 39.3281C28.5859 39.6875 28.5078 40.0781 28.5 40.5H27ZM31.5 33C31.2891 33 31.0938 33.0391 30.9141 33.1172C30.7344 33.1953 30.5781 33.3008 30.4453 33.4336C30.3125 33.5664 30.2031 33.7266 30.1172 33.9141C30.0312 34.1016 29.9922 34.2969 30 34.5C30 34.7109 30.0391 34.9062 30.1172 35.0859C30.1953 35.2656 30.3008 35.4219 30.4336 35.5547C30.5664 35.6875 30.7266 35.7969 30.9141 35.8828C31.1016 35.9688 31.2969 36.0078 31.5 36C31.7109 36 31.9062 35.9609 32.0859 35.8828C32.2656 35.8047 32.4219 35.6992 32.5547 35.5664C32.6875 35.4336 32.7969 35.2734 32.8828 35.0859C32.9688 34.8984 33.0078 34.7031 33 34.5C33 34.2891 32.9609 34.0938 32.8828 33.9141C32.8047 33.7344 32.6992 33.5781 32.5664 33.4453C32.4336 33.3125 32.2734 33.2031 32.0859 33.1172C31.8984 33.0312 31.7031 32.9922 31.5 33ZM47.8828 41.4375L46.4297 42.0352C46.4766 42.2695 46.5 42.5078 46.5 42.75C46.5 42.9922 46.4766 43.2305 46.4297 43.4648L47.8828 44.0625L47.3086 45.457L45.8555 44.8477C45.582 45.2461 45.2461 45.582 44.8477 45.8555L45.457 47.3086L44.0625 47.8828L43.4648 46.4297C43.2305 46.4766 42.9922 46.5 42.75 46.5C42.5078 46.5 42.2695 46.4766 42.0352 46.4297L41.4375 47.8828L40.043 47.3086L40.6523 45.8555C40.2539 45.582 39.918 45.2461 39.6445 44.8477L38.1914 45.457L37.6172 44.0625L39.0703 43.4648C39.0234 43.2305 39 42.9922 39 42.75C39 42.5078 39.0234 42.2695 39.0703 42.0352L37.6172 41.4375L38.1914 40.043L39.6445 40.6523C39.918 40.2539 40.2539 39.918 40.6523 39.6445L40.043 38.1914L41.4375 37.6172L42.0352 39.0703C42.2695 39.0234 42.5078 39 42.75 39C42.9922 39 43.2305 39.0234 43.4648 39.0703L44.0625 37.6172L45.457 38.1914L44.8477 39.6445C45.2461 39.918 45.582 40.2539 45.8555 40.6523L47.3086 40.043L47.8828 41.4375ZM42.75 45C43.0625 45 43.3555 44.9414 43.6289 44.8242C43.9023 44.707 44.1406 44.5469 44.3438 44.3438C44.5469 44.1406 44.707 43.9023 44.8242 43.6289C44.9414 43.3555 45 43.0625 45 42.75C45 42.4375 44.9414 42.1445 44.8242 41.8711C44.707 41.5977 44.5469 41.3594 44.3438 41.1562C44.1406 40.9531 43.9023 40.793 43.6289 40.6758C43.3555 40.5586 43.0625 40.5 42.75 40.5C42.4375 40.5 42.1445 40.5586 41.8711 40.6758C41.5977 40.793 41.3594 40.9531 41.1562 41.1562C40.9531 41.3594 40.793 41.5977 40.6758 41.8711C40.5586 42.1445 40.5 42.4375 40.5 42.75C40.5 43.0625 40.5586 43.3555 40.6758 43.6289C40.793 43.9023 40.9531 44.1406 41.1562 44.3438C41.3594 44.5469 41.5977 44.707 41.8711 44.8242C42.1445 44.9414 42.4375 45 42.75 45Z" fill="#00EA48"/>
</svg>
