<svg width="15" height="15" viewBox="0 0 15 15" fill="none" xmlns="http://www.w3.org/2000/svg">
<g clip-path="url(#clip0_7_12580)">
<path d="M5.86133 9.32754C5.86133 7.60447 5.86133 6.74294 6.39662 6.20765C6.9319 5.67236 7.79344 5.67236 9.5165 5.67236L10.1257 5.67236C11.8488 5.67236 12.7103 5.67236 13.2456 6.20765C13.7809 6.74294 13.7809 7.60447 13.7809 9.32754V9.93673C13.7809 11.6598 13.7809 12.5213 13.2456 13.0566C12.7103 13.5919 11.8488 13.5919 10.1257 13.5919H9.5165C7.79344 13.5919 6.9319 13.5919 6.39662 13.0566C5.86133 12.5213 5.86133 11.6598 5.86133 9.93673L5.86133 9.32754Z" stroke="#00EA48" stroke-opacity="0.51" stroke-width="0.913793" stroke-linecap="round" stroke-linejoin="round"/>
<path d="M10.7355 5.67257C10.7341 3.87112 10.7068 2.93802 10.1825 2.29911C10.0812 2.17572 9.96807 2.06259 9.84468 1.96133C9.1707 1.4082 8.16934 1.4082 6.16662 1.4082C4.1639 1.4082 3.16254 1.4082 2.48856 1.96133C2.36518 2.06259 2.25204 2.17572 2.15078 2.29911C1.59766 2.97309 1.59766 3.97445 1.59766 5.97717C1.59766 7.97989 1.59766 8.98125 2.15078 9.65523C2.25204 9.77861 2.36518 9.89175 2.48856 9.99301C3.12747 10.5174 4.06058 10.5446 5.86202 10.5461" stroke="#00EA48" stroke-opacity="0.51" stroke-width="0.913793" stroke-linecap="round" stroke-linejoin="round"/>
</g>
<defs>
<clipPath id="clip0_7_12580">
<rect width="14.6207" height="14.6207" fill="white" transform="translate(0.378906 0.189453)"/>
</clipPath>
</defs>
</svg>
