<svg width="189" height="64" viewBox="0 0 189 64" fill="none" xmlns="http://www.w3.org/2000/svg">
<rect width="189" height="64" rx="12" fill="#181C20"/>
<rect x="12" y="12" width="40" height="40" rx="20" fill="#06140F"/>
<path d="M32 41C27.286 41 24.9289 41 23.4645 39.5355C22 38.0711 22 35.714 22 31V27.9443C22 26.1278 22 25.2196 22.3803 24.5381C22.6514 24.0523 23.0523 23.6514 23.5381 23.3803C24.2196 23 25.1278 23 26.9443 23C28.108 23 28.6899 23 29.1993 23.191C30.3622 23.6271 30.8418 24.6836 31.3666 25.7331L32 27M28 27H36.75C38.8567 27 39.91 27 40.6667 27.5056C40.9943 27.7245 41.2755 28.0057 41.4944 28.3333C42 29.09 42 30.1433 42 32.25" stroke="#00EA48" stroke-opacity="0.51" stroke-width="1.5" stroke-linecap="round"/>
<path d="M42 35H35M42 38H35M37.5 41H35" stroke="#00EA48" stroke-opacity="0.51" stroke-width="1.5" stroke-linecap="round" stroke-linejoin="round"/>
<path d="M62.2955 26.3636L65.5341 35.8409H65.6648L68.9034 26.3636H70.8011L66.6136 38H64.5852L60.3977 26.3636H62.2955ZM72.3452 38V29.2727H74.044V38H72.3452ZM73.2031 27.9261C72.9077 27.9261 72.6539 27.8277 72.4418 27.6307C72.2334 27.4299 72.1293 27.1913 72.1293 26.9148C72.1293 26.6345 72.2334 26.3958 72.4418 26.1989C72.6539 25.9981 72.9077 25.8977 73.2031 25.8977C73.4986 25.8977 73.7505 25.9981 73.9588 26.1989C74.1709 26.3958 74.277 26.6345 74.277 26.9148C74.277 27.1913 74.1709 27.4299 73.9588 27.6307C73.7505 27.8277 73.4986 27.9261 73.2031 27.9261ZM80.0909 38.1761C79.2311 38.1761 78.4905 37.9924 77.8693 37.625C77.2519 37.2538 76.7746 36.733 76.4375 36.0625C76.1042 35.3883 75.9375 34.5985 75.9375 33.6932C75.9375 32.7992 76.1042 32.0114 76.4375 31.3295C76.7746 30.6477 77.2443 30.1155 77.8466 29.733C78.4527 29.3504 79.161 29.1591 79.9716 29.1591C80.464 29.1591 80.9413 29.2405 81.4034 29.4034C81.8655 29.5663 82.2803 29.822 82.6477 30.1705C83.0152 30.5189 83.3049 30.9716 83.517 31.5284C83.7292 32.0814 83.8352 32.7538 83.8352 33.5455V34.1477H76.8977V32.875H82.1705C82.1705 32.428 82.0795 32.0322 81.8977 31.6875C81.7159 31.339 81.4602 31.0644 81.1307 30.8636C80.8049 30.6629 80.4223 30.5625 79.983 30.5625C79.5057 30.5625 79.089 30.6799 78.733 30.9148C78.3807 31.1458 78.108 31.4489 77.9148 31.8239C77.7254 32.1951 77.6307 32.5985 77.6307 33.0341V34.0284C77.6307 34.6117 77.733 35.108 77.9375 35.517C78.1458 35.9261 78.4356 36.2386 78.8068 36.4545C79.178 36.6667 79.6117 36.7727 80.108 36.7727C80.4299 36.7727 80.7235 36.7273 80.9886 36.6364C81.2538 36.5417 81.483 36.4015 81.6761 36.2159C81.8693 36.0303 82.017 35.8011 82.1193 35.5284L83.7273 35.8182C83.5985 36.2917 83.3674 36.7064 83.0341 37.0625C82.7045 37.4148 82.2898 37.6894 81.7898 37.8864C81.2936 38.0795 80.7273 38.1761 80.0909 38.1761ZM87.5966 38L85.0284 29.2727H86.7841L88.4943 35.6818H88.5795L90.2955 29.2727H92.0511L93.7557 35.6534H93.8409L95.5398 29.2727H97.2955L94.733 38H93L91.2273 31.6989H91.0966L89.3239 38H87.5966ZM107.045 38H103.278V26.3636H107.165C108.305 26.3636 109.284 26.5966 110.102 27.0625C110.92 27.5246 111.547 28.1894 111.983 29.0568C112.422 29.9205 112.642 30.9564 112.642 32.1648C112.642 33.3769 112.42 34.4186 111.977 35.2898C111.538 36.161 110.902 36.8314 110.068 37.3011C109.235 37.767 108.227 38 107.045 38ZM105.034 36.4659H106.949C107.835 36.4659 108.572 36.2992 109.159 35.9659C109.746 35.6288 110.186 35.142 110.477 34.5057C110.769 33.8655 110.915 33.0852 110.915 32.1648C110.915 31.2519 110.769 30.4773 110.477 29.8409C110.189 29.2045 109.759 28.7216 109.188 28.392C108.616 28.0625 107.905 27.8977 107.057 27.8977H105.034V36.4659ZM118.45 38.1761C117.59 38.1761 116.85 37.9924 116.229 37.625C115.611 37.2538 115.134 36.733 114.797 36.0625C114.464 35.3883 114.297 34.5985 114.297 33.6932C114.297 32.7992 114.464 32.0114 114.797 31.3295C115.134 30.6477 115.604 30.1155 116.206 29.733C116.812 29.3504 117.52 29.1591 118.331 29.1591C118.823 29.1591 119.301 29.2405 119.763 29.4034C120.225 29.5663 120.64 29.822 121.007 30.1705C121.375 30.5189 121.664 30.9716 121.876 31.5284C122.089 32.0814 122.195 32.7538 122.195 33.5455V34.1477H115.257V32.875H120.53C120.53 32.428 120.439 32.0322 120.257 31.6875C120.075 31.339 119.82 31.0644 119.49 30.8636C119.164 30.6629 118.782 30.5625 118.342 30.5625C117.865 30.5625 117.448 30.6799 117.092 30.9148C116.74 31.1458 116.467 31.4489 116.274 31.8239C116.085 32.1951 115.99 32.5985 115.99 33.0341V34.0284C115.99 34.6117 116.092 35.108 116.297 35.517C116.505 35.9261 116.795 36.2386 117.166 36.4545C117.537 36.6667 117.971 36.7727 118.467 36.7727C118.789 36.7727 119.083 36.7273 119.348 36.6364C119.613 36.5417 119.842 36.4015 120.036 36.2159C120.229 36.0303 120.376 35.8011 120.479 35.5284L122.087 35.8182C121.958 36.2917 121.727 36.7064 121.393 37.0625C121.064 37.4148 120.649 37.6894 120.149 37.8864C119.653 38.0795 119.087 38.1761 118.45 38.1761ZM128.153 29.2727V30.6364H123.386V29.2727H128.153ZM124.665 27.1818H126.364V35.4375C126.364 35.767 126.413 36.0152 126.511 36.1818C126.61 36.3447 126.737 36.4564 126.892 36.517C127.051 36.5739 127.223 36.6023 127.409 36.6023C127.545 36.6023 127.665 36.5928 127.767 36.5739C127.869 36.5549 127.949 36.5398 128.006 36.5284L128.312 37.9318C128.214 37.9697 128.074 38.0076 127.892 38.0455C127.71 38.0871 127.483 38.1098 127.21 38.1136C126.763 38.1212 126.347 38.0417 125.96 37.875C125.574 37.7083 125.261 37.4508 125.023 37.1023C124.784 36.7538 124.665 36.3163 124.665 35.7898V27.1818ZM132.572 38.1932C132.019 38.1932 131.519 38.0909 131.072 37.8864C130.625 37.678 130.271 37.3769 130.01 36.983C129.752 36.589 129.624 36.1061 129.624 35.5341C129.624 35.0417 129.718 34.6364 129.908 34.3182C130.097 34 130.353 33.7481 130.675 33.5625C130.997 33.3769 131.357 33.2367 131.754 33.142C132.152 33.0473 132.557 32.9754 132.97 32.9261C133.493 32.8655 133.917 32.8163 134.243 32.7784C134.569 32.7367 134.805 32.6705 134.953 32.5795C135.101 32.4886 135.175 32.3409 135.175 32.1364V32.0966C135.175 31.6004 135.035 31.2159 134.754 30.9432C134.478 30.6705 134.065 30.5341 133.516 30.5341C132.944 30.5341 132.493 30.661 132.163 30.9148C131.838 31.1648 131.612 31.4432 131.487 31.75L129.891 31.3864C130.08 30.8561 130.357 30.428 130.72 30.1023C131.088 29.7727 131.51 29.5341 131.987 29.3864C132.464 29.2348 132.966 29.1591 133.493 29.1591C133.841 29.1591 134.211 29.2008 134.601 29.2841C134.995 29.3636 135.362 29.5114 135.703 29.7273C136.048 29.9432 136.33 30.2519 136.55 30.6534C136.769 31.0511 136.879 31.5682 136.879 32.2045V38H135.22V36.8068H135.152C135.042 37.0265 134.877 37.2424 134.658 37.4545C134.438 37.6667 134.156 37.8428 133.811 37.983C133.466 38.1231 133.054 38.1932 132.572 38.1932ZM132.942 36.8295C133.411 36.8295 133.813 36.7367 134.146 36.5511C134.483 36.3655 134.739 36.1231 134.913 35.8239C135.091 35.5208 135.18 35.197 135.18 34.8523V33.7273C135.12 33.7879 135.002 33.8447 134.828 33.8977C134.658 33.947 134.463 33.9905 134.243 34.0284C134.023 34.0625 133.809 34.0947 133.601 34.125C133.393 34.1515 133.218 34.1742 133.078 34.1932C132.749 34.2348 132.447 34.3049 132.175 34.4034C131.906 34.5019 131.69 34.6439 131.527 34.8295C131.368 35.0114 131.288 35.2538 131.288 35.5568C131.288 35.9773 131.444 36.2955 131.754 36.5114C132.065 36.7235 132.461 36.8295 132.942 36.8295ZM139.142 38V29.2727H140.841V38H139.142ZM140 27.9261C139.705 27.9261 139.451 27.8277 139.239 27.6307C139.03 27.4299 138.926 27.1913 138.926 26.9148C138.926 26.6345 139.03 26.3958 139.239 26.1989C139.451 25.9981 139.705 25.8977 140 25.8977C140.295 25.8977 140.547 25.9981 140.756 26.1989C140.968 26.3958 141.074 26.6345 141.074 26.9148C141.074 27.1913 140.968 27.4299 140.756 27.6307C140.547 27.8277 140.295 27.9261 140 27.9261ZM144.825 26.3636V38H143.126V26.3636H144.825ZM153.651 31.4034L152.111 31.6761C152.046 31.4792 151.944 31.2917 151.804 31.1136C151.668 30.9356 151.482 30.7898 151.247 30.6761C151.012 30.5625 150.719 30.5057 150.366 30.5057C149.885 30.5057 149.484 30.6136 149.162 30.8295C148.84 31.0417 148.679 31.3163 148.679 31.6534C148.679 31.9451 148.787 32.1799 149.003 32.358C149.219 32.536 149.567 32.6818 150.048 32.7955L151.435 33.1136C152.238 33.2992 152.836 33.5852 153.23 33.9716C153.624 34.358 153.821 34.8598 153.821 35.4773C153.821 36 153.67 36.4659 153.366 36.875C153.067 37.2803 152.649 37.5985 152.111 37.8295C151.577 38.0606 150.957 38.1761 150.253 38.1761C149.276 38.1761 148.478 37.9678 147.861 37.5511C147.243 37.1307 146.865 36.5341 146.724 35.7614L148.366 35.5114C148.469 35.9394 148.679 36.2633 148.997 36.483C149.315 36.6989 149.73 36.8068 150.241 36.8068C150.798 36.8068 151.243 36.6913 151.577 36.4602C151.91 36.2254 152.077 35.9394 152.077 35.6023C152.077 35.3295 151.974 35.1004 151.77 34.9148C151.569 34.7292 151.26 34.589 150.844 34.4943L149.366 34.1705C148.552 33.9848 147.95 33.6894 147.56 33.2841C147.173 32.8788 146.98 32.3655 146.98 31.7443C146.98 31.2292 147.124 30.7784 147.412 30.392C147.7 30.0057 148.098 29.7045 148.605 29.4886C149.113 29.2689 149.694 29.1591 150.349 29.1591C151.293 29.1591 152.035 29.3636 152.577 29.7727C153.118 30.178 153.476 30.7216 153.651 31.4034Z" fill="white"/>
</svg>
