<svg width="43" height="43" viewBox="0 0 43 43" fill="none" xmlns="http://www.w3.org/2000/svg">
<rect width="43" height="43" rx="21.5" fill="#154A34"/>
<path d="M22.5 16L19.5 20.5H21.5V23.5L24.5 19H22.5V16Z" fill="#00EA48"/>
<path fill-rule="evenodd" clip-rule="evenodd" d="M28.9548 19.6365C28.803 20.9242 28.2854 22.1414 27.4633 23.144C26.9823 23.732 25.7598 25.41 25.4998 26.5H18.4998C18.2398 25.409 17.0158 23.7305 16.5348 23.1425C15.7131 22.1394 15.196 20.9219 15.0448 19.634C14.8958 18.3489 15.1201 17.048 15.6908 15.887C16.2666 14.7169 17.1622 13.7339 18.2738 13.052C19.3947 12.3628 20.685 11.9985 22.0008 12C23.3198 12 24.6118 12.365 25.7278 13.0535C26.8391 13.7357 27.7344 14.7188 28.3098 15.889C28.8803 17.0503 29.1043 18.3513 28.9548 19.6365ZM24.7913 25.5H19.2078C18.9948 25.0085 18.7103 24.516 18.4453 24.0975C18.0965 23.5476 17.7172 23.0176 17.3093 22.51C16.6085 21.6548 16.1674 20.6166 16.0383 19.5185C15.9113 18.4241 16.1023 17.3163 16.5883 16.3275C17.0811 15.3268 17.8473 14.4864 18.7983 13.9035C19.7615 13.3114 20.8702 12.9986 22.0008 13C23.1358 13 24.2458 13.3145 25.2033 13.905C26.1539 14.488 26.9199 15.3285 27.4123 16.329C27.8981 17.318 28.0887 18.426 27.9613 19.5205C27.8318 20.6184 27.3904 21.6562 26.6893 22.511C26.2807 23.018 25.9016 23.548 25.5538 24.0985C25.2888 24.517 25.0043 25.0085 24.7913 25.5Z" fill="#00EA48"/>
<path d="M18.5 28C18.5 27.8674 18.5527 27.7402 18.6464 27.6464C18.7402 27.5527 18.8674 27.5 19 27.5H25C25.1326 27.5 25.2598 27.5527 25.3536 27.6464C25.4473 27.7402 25.5 27.8674 25.5 28C25.5 28.1326 25.4473 28.2598 25.3536 28.3536C25.2598 28.4473 25.1326 28.5 25 28.5H19C18.8674 28.5 18.7402 28.4473 18.6464 28.3536C18.5527 28.2598 18.5 28.1326 18.5 28Z" fill="#00EA48"/>
<path fill-rule="evenodd" clip-rule="evenodd" d="M18.5 29.5H25.5V31C25.5 31.2652 25.3946 31.5196 25.2071 31.7071C25.0196 31.8946 24.7652 32 24.5 32H19.5C19.2348 32 18.9804 31.8946 18.7929 31.7071C18.6054 31.5196 18.5 31.2652 18.5 31V29.5ZM19.5 30.5H24.5V31H19.5V30.5Z" fill="#00EA48"/>
</svg>
