<svg width="72" height="72" viewBox="0 0 72 72" fill="none" xmlns="http://www.w3.org/2000/svg">
<rect width="72" height="72" rx="36" fill="#0D2E22"/>
<path d="M46 33C45.9635 30.7477 45.7892 29.4466 44.9564 28.5129C44.7879 28.324 44.6022 28.1494 44.4014 27.9909C43.1461 27 41.2659 27 37.5056 27H34.5041C30.7437 27 28.8635 27 27.6082 27.9909C27.4075 28.1494 27.2218 28.324 27.0533 28.5129C26 29.6938 26 31.4625 26 35C26 38.5375 26 40.3062 27.0533 41.4871C27.2218 41.676 27.4075 41.8506 27.6082 42.0091C28.8635 43 30.7437 43 34.5041 43H35.5" stroke="#00EA48" stroke-width="1.5" stroke-linecap="round" stroke-linejoin="round"/>
<path d="M26 32H46" stroke="#00EA48" stroke-width="1.5" stroke-linejoin="round"/>
<path d="M42 37V38.7778M42 38.7778V43.2222M42 38.7778L43.5 38M42 38.7778L40.5 38M42 43.2222V45M42 43.2222L40.5 44M42 43.2222L43.5 44M46 41H44.2222M44.2222 41H39.7778M44.2222 41L45 42.5M44.2222 41L45 39.5M39.7778 41H38M39.7778 41L39 39.5M39.7778 41L39 42.5" stroke="#00EA48" stroke-width="1.5" stroke-linecap="round" stroke-linejoin="round"/>
</svg>
