<svg width="65" height="64" viewBox="0 0 65 64" fill="none" xmlns="http://www.w3.org/2000/svg">
<rect x="0.5" width="64" height="64" rx="12" fill="#154A34"/>
<path d="M26.5005 25V24.302C26.5005 20.834 29.1725 18 32.5005 18C35.8285 18 38.5005 20.834 38.5005 24.302V25.002H42.5965C42.8442 25.0022 43.083 25.0944 43.2667 25.2607C43.4503 25.427 43.5657 25.6555 43.5905 25.902L45.3905 43.902C45.4044 44.041 45.3891 44.1813 45.3456 44.314C45.302 44.4467 45.2311 44.5688 45.1374 44.6725C45.0438 44.7761 44.9295 44.8589 44.8019 44.9157C44.6742 44.9725 44.5362 45.0019 44.3965 45.002H20.6045C20.4648 45.0019 20.3267 44.9725 20.1991 44.9157C20.0715 44.8589 19.9572 44.7761 19.8635 44.6725C19.7699 44.5688 19.699 44.4467 19.6554 44.314C19.6118 44.1813 19.5965 44.041 19.6105 43.902L21.4105 25.902C21.4353 25.6555 21.5506 25.427 21.7343 25.2607C21.9179 25.0944 22.1567 25.0022 22.4045 25.002H26.5005V25ZM28.5005 25H36.5005V24.302C36.5005 21.914 34.6965 20 32.5005 20C30.3045 20 28.5005 21.914 28.5005 24.302V25.002V25ZM26.5005 27H23.3105L21.7105 43H43.2905L41.6885 27H38.5005V30C38.5005 30.2652 38.3951 30.5196 38.2076 30.7071C38.0201 30.8946 37.7657 31 37.5005 31C37.2353 31 36.9809 30.8946 36.7934 30.7071C36.6058 30.5196 36.5005 30.2652 36.5005 30V27H28.5005V30C28.5005 30.2652 28.3951 30.5196 28.2076 30.7071C28.0201 30.8946 27.7657 31 27.5005 31C27.2353 31 26.9809 30.8946 26.7934 30.7071C26.6058 30.5196 26.5005 30.2652 26.5005 30V27Z" fill="#00EA48"/>
</svg>
