<svg width="64" height="64" viewBox="0 0 64 64" fill="none" xmlns="http://www.w3.org/2000/svg">
<rect width="64" height="64" rx="32" fill="#02AB3E"/>
<path d="M44.4937 27.0531L33.147 19.0131C32.4537 18.5464 31.5337 18.5464 30.8537 19.0131L19.4937 27.0664C18.9737 27.4398 18.667 28.0531 18.667 28.6931V43.3331C18.667 44.4398 19.5603 45.3331 20.667 45.3331H27.3337C28.4403 45.3331 29.3337 44.4398 29.3337 43.3331V36.6531C29.3337 36.2798 29.627 35.9864 30.0003 35.9864L34.0003 35.9998C34.387 35.9998 34.667 36.2931 34.667 36.6664V43.3331C34.667 44.4398 35.5603 45.3331 36.667 45.3331H43.3337C44.4403 45.3331 45.3337 44.4398 45.3337 43.3331V28.6931C45.3337 28.0531 45.027 27.4398 44.4937 27.0531Z" fill="white"/>
</svg>
