<svg width="32" height="32" viewBox="0 0 32 32" fill="none" xmlns="http://www.w3.org/2000/svg">
<path d="M28.4937 11.0533L17.147 3.01333C16.4537 2.54666 15.5337 2.54666 14.8537 3.01333L3.49366 11.0667C2.97366 11.44 2.66699 12.0533 2.66699 12.6933V27.3333C2.66699 28.44 3.56033 29.3333 4.66699 29.3333H11.3337C12.4403 29.3333 13.3337 28.44 13.3337 27.3333V20.6533C13.3337 20.28 13.627 19.9867 14.0003 19.9867L18.0003 20C18.387 20 18.667 20.2933 18.667 20.6667V27.3333C18.667 28.44 19.5603 29.3333 20.667 29.3333H27.3337C28.4403 29.3333 29.3337 28.44 29.3337 27.3333V12.6933C29.3337 12.0533 29.027 11.44 28.4937 11.0533Z" fill="white"/>
</svg>
