<svg width="48" height="48" viewBox="0 0 48 48" fill="none" xmlns="http://www.w3.org/2000/svg">
<rect width="48" height="48" rx="24" fill="#154A34"/>
<g clip-path="url(#clip0_7_12616)">
<path d="M23.9473 35.1409V26.1409C23.9473 25.5726 24.173 25.0275 24.5749 24.6257C24.9768 24.2238 25.5218 23.998 26.0901 23.998C26.6584 23.998 27.2035 24.2238 27.6054 24.6257C28.0072 25.0275 28.233 25.5726 28.233 26.1409V30.8552H31.6616C32.5709 30.8552 33.4429 31.2164 34.0859 31.8594C34.7289 32.5024 35.0901 33.3744 35.0901 34.2838V35.1409" stroke="#00EA48" stroke-width="1.71429" stroke-linecap="round" stroke-linejoin="round"/>
<path d="M20.6795 28.3952C19.0978 28.395 17.5539 27.9119 16.2542 27.0106C14.9545 26.1093 13.9609 24.8328 13.4063 23.3515C12.8517 21.8703 12.7625 20.2551 13.1506 18.7218C13.5387 17.1885 14.3856 15.8103 15.5781 14.7713C16.7706 13.7323 18.2519 13.0822 19.8239 12.9077C21.3959 12.7333 22.9837 13.0429 24.375 13.7952C25.7662 14.5475 26.8947 15.7066 27.6095 17.1175C28.3243 18.5284 28.5913 20.1239 28.3749 21.6906" stroke="#00EA48" stroke-width="1.71429" stroke-linecap="round"/>
<path d="M22.9253 18.9991V19.6146H16.6469V18.9991H22.9253ZM22.9253 20.3286V20.9441H16.6469V20.3286H22.9253ZM22.3314 16.697V23H21.4542L18.2504 18.3774H18.195V23H17.2409V16.697H18.1242L21.328 21.3258H21.3865V16.697H22.3314Z" fill="#00EA48"/>
</g>
<defs>
<clipPath id="clip0_7_12616">
<rect width="24" height="24" fill="white" transform="translate(12 12)"/>
</clipPath>
</defs>
</svg>
