<svg width="48" height="48" viewBox="0 0 48 48" fill="none" xmlns="http://www.w3.org/2000/svg">
<rect width="48" height="48" rx="24" fill="#154A34"/>
<path d="M23.25 28.5L22.1925 29.5575L24.1275 31.5H15V18H13.5V31.5C13.5 32.3272 14.1727 33 15 33H24.1275L22.1925 34.9425L23.25 36L27 32.25L23.25 28.5Z" fill="#02A93E"/>
<path d="M20.25 24.75C20.6642 24.75 21 24.4142 21 24C21 23.5858 20.6642 23.25 20.25 23.25C19.8358 23.25 19.5 23.5858 19.5 24C19.5 24.4142 19.8358 24.75 20.25 24.75Z" fill="#00EA48" fill-opacity="0.51"/>
<path d="M30 27H18C17.1727 27 16.5 26.3273 16.5 25.5V22.5C16.5 21.6727 17.1727 21 18 21H30C30.8273 21 31.5 21.6727 31.5 22.5V25.5C31.5 26.3273 30.8273 27 30 27ZM18 22.5V25.5H30V22.5H18Z" fill="#02A93E"/>
<path d="M33 15H23.8725L25.8075 13.0575L24.75 12L21 15.75L24.75 19.5L25.8075 18.4425L23.8725 16.5H33V30H34.5V16.5C34.5 15.6735 33.8273 15 33 15Z" fill="#00EA48"/>
</svg>
