<svg width="40" height="40" viewBox="0 0 40 40" fill="none" xmlns="http://www.w3.org/2000/svg">
<rect width="40" height="40" rx="20" fill="#005F37"/>
<path d="M19.0717 12.0693C16.2633 12.4933 14.0173 14.8128 13.6796 17.7939L13.3348 20.8383C13.2491 21.5948 12.9425 22.3067 12.4555 22.8799C11.4221 24.0962 12.2608 25.9998 13.8301 25.9998H26.1699C27.7392 25.9998 28.5779 24.0962 27.5445 22.8799C27.0575 22.3067 26.7509 21.5948 26.6652 20.8383L26.4373 18.8266M23 27.9998C22.5633 29.165 21.385 29.9998 20 29.9998C18.615 29.9998 17.4367 29.165 17 27.9998" stroke="white" stroke-linecap="round"/>
<path d="M28 13C28 14.6569 26.6569 16 25 16C23.3431 16 22 14.6569 22 13C22 11.3431 23.3431 10 25 10C26.6569 10 28 11.3431 28 13Z" fill="#00EA48"/>
</svg>
