<svg width="270" height="270" viewBox="0 0 270 270" fill="none" xmlns="http://www.w3.org/2000/svg">
<circle cx="135" cy="135" r="134.5" stroke="#00EA48" stroke-opacity="0.24"/>
<circle cx="135" cy="135" r="114.5" stroke="#00EA48" stroke-opacity="0.5"/>
<circle cx="135" cy="135" r="90.5" stroke="#00EA48" stroke-opacity="0.51"/>
<circle cx="135" cy="135" r="91" fill="#00EA48"/>
<path fill-rule="evenodd" clip-rule="evenodd" d="M131.594 66.8206C129.966 68.7921 131.314 70.173 134.867 70.173C139.849 70.173 149.912 72.2863 155.434 74.4927C172.942 81.4878 185.632 95.0166 191.808 113.269C192.776 116.127 193.567 119.017 193.567 119.692C193.567 120.367 194.05 121.573 194.641 122.375C195.654 123.749 195.788 123.759 197.009 122.55C198.236 121.334 198.218 120.948 196.656 115.045C189.497 87.9967 165.913 68.5167 137.462 66.152C133.655 65.8353 132.277 65.9929 131.594 66.8206ZM113.7 68.931C95.0528 74.6391 79.7086 88.6061 71.9377 106.946C67.9047 116.465 66.1574 128.608 67.3875 138.568C67.8144 142.02 68.2294 148.646 68.3108 153.291C68.3914 157.937 68.6848 162.107 68.9624 162.558C69.2401 163.009 70.0985 163.256 70.8703 163.106C72.4139 162.805 72.4236 162.486 71.7988 133.963C71.4838 119.595 72.1743 116.085 77.4858 105.07C85.2292 89.0128 98.979 77.6154 116.825 72.4612C122.517 70.8177 123.777 70.1903 123.777 69C123.777 66.8934 120.431 66.8702 113.7 68.931ZM126.389 74.4657C105.51 76.8619 86.8601 91.2034 79.104 110.827C76.873 116.471 76.6401 118.606 78.1904 119.204C79.5668 119.735 80.2326 118.801 82.3771 113.325C85.3508 105.732 89.0658 100.071 94.9782 94.1243C109.49 79.5276 129.967 74.6195 149.858 80.9708C165.179 85.8623 178.058 98.3787 183.764 113.922C186.695 121.907 187.722 130.896 188.137 152.222C188.464 169.023 188.712 172.427 189.631 172.781C190.236 173.015 191.029 172.735 191.392 172.159C192.316 170.692 192.237 142.668 191.281 132.78C189.409 113.404 184.85 102.626 173.822 91.5066C166.56 84.185 161.107 80.6631 151.985 77.4038C144.271 74.6473 134.538 73.5299 126.389 74.4657ZM122.255 83.286C114.269 85.0346 105.018 89.9186 98.9581 95.5869C96.3083 98.065 95.8746 99.7776 97.7168 100.488C98.4811 100.783 100.267 99.734 102.755 97.5284C111.942 89.3851 126.096 84.9753 138.022 86.5415C158.617 89.2455 173.708 103.191 178.226 123.693C178.588 125.341 179.055 125.753 180.344 125.568C181.736 125.369 181.967 124.916 181.806 122.705C181.317 115.996 175.759 105.076 169.218 97.9727C157.513 85.2612 139.281 79.5599 122.255 83.286ZM122.003 91.62C108.074 95.3866 96.0821 107.593 92.4187 121.733C90.8945 127.616 90.9184 138.708 92.4582 139.993C94.4497 141.655 95.2946 139.736 95.1095 133.98C94.4288 112.878 109.783 95.7055 130.494 94.4072C148.074 93.3055 163.965 104.158 169.183 120.83C172.139 130.273 173.416 154.885 171.891 172.988C170.479 189.732 170.498 190.624 172.26 190.624C174.061 190.624 174.529 188.619 175.601 176.335C177.126 158.852 176.343 135.576 173.82 123.386C169.805 103.985 152.828 90.3419 132.881 90.4852C129.105 90.5123 124.21 91.0226 122.003 91.62ZM125.369 99.1307C107.979 103.363 97.051 119.721 99.6425 137.642C101.103 147.738 100.64 169.819 98.7528 180.117C98.0763 183.803 97.4033 187.49 96.7337 191.177C96.471 192.645 96.724 193.371 97.6183 193.716C99.6328 194.494 100.409 192.998 101.836 185.594C104.24 173.105 104.958 159.117 103.957 144.217C102.907 128.596 103.195 124.997 105.927 119.575C108.727 114.013 111.061 111.122 115.224 108.049C120.976 103.803 126.295 102.286 134.303 102.606C140.137 102.839 141.789 103.221 146.005 105.308C151.553 108.055 156.73 112.931 159.334 117.867C161.104 121.222 163.168 122.205 163.98 120.079C164.534 118.627 160.08 111.022 156.867 107.933C152.816 104.039 146.01 100.361 140.54 99.1104C134.415 97.7093 131.192 97.7138 125.369 99.1307ZM91.3409 104.647C88.5515 108.585 85.3307 116.343 84.1252 122.026C83.1877 126.443 83.0765 129.279 83.5811 135.839C84.4835 147.564 84.276 171.797 83.2288 177.085C82.5025 180.751 82.5264 181.741 83.3594 182.579C86.8564 186.095 88.7933 173.022 87.9357 151.691C86.9527 127.23 87.0631 124.606 89.3673 117.828C90.4899 114.526 92.4291 110.219 93.6764 108.257C95.9388 104.699 96.062 102.443 93.9936 102.443C93.3935 102.443 92.1992 103.435 91.3409 104.647ZM125.198 107.397C117.368 109.822 110.45 117.14 107.977 125.615C106.907 129.282 106.859 130.873 107.61 137.75C108.086 142.103 108.475 147.887 108.475 150.604C108.475 154.226 108.795 155.81 109.675 156.545C110.686 157.387 111.011 157.36 111.734 156.367C112.362 155.503 112.407 152.495 111.903 145.138C110.856 129.873 110.956 128.076 113.122 123.32C117.766 113.121 128.399 108.041 138.789 111.057C141.206 111.759 144.252 113.147 145.559 114.142C148.067 116.052 149.888 116.437 150.638 115.217C151.564 113.712 149.386 111.473 144.782 109.194C138.895 106.28 131.113 105.566 125.198 107.397ZM128.912 115.54C128.196 117.417 129.345 118.203 132.802 118.203C134.638 118.203 137.226 118.659 138.554 119.217C141.768 120.567 145.559 125.02 146.468 128.512C148.083 134.707 148.979 150.253 148.492 163.607C148.034 176.173 147.472 181.227 144.967 195.312C144.233 199.439 144.209 200.961 144.867 201.622C147.254 204.022 149.062 197.645 151.425 178.494C153.277 163.484 152.676 138.53 150.203 127.785C148.418 120.028 141.352 114.451 133.31 114.451C130.517 114.451 129.204 114.776 128.912 115.54ZM153.668 121.149C153.406 121.574 153.716 124.469 154.356 127.582C156.023 135.695 157.098 153.805 156.562 164.732C156.151 173.102 154.138 190.44 152.85 196.707C152.476 198.526 152.659 199.15 153.686 199.546C155.582 200.277 156.063 199.481 157.277 193.615C160.3 179.015 161.346 148.514 159.349 133.213C158.169 124.166 155.411 118.312 153.668 121.149ZM130.526 122.496C128.02 123.148 125.613 125.088 124.412 127.426C123.389 129.414 123.365 131.271 124.201 143.637C124.944 154.638 124.955 159.992 124.254 168.86C123.507 178.299 120.721 195.517 119.323 199.336C119.113 199.91 119.263 200.886 119.658 201.505C121.071 203.723 122.965 201.248 124.315 195.42C128.027 179.391 129.357 159.403 127.896 141.614L126.953 130.127L128.7 128.258C131.067 125.724 135.693 125.959 137.652 128.71C139.413 131.185 140.567 141.309 140.569 154.322C140.57 162.358 140.804 164.743 141.658 165.456C143.884 167.312 144.303 165.49 144.303 153.974C144.303 141.229 143.274 131.044 141.635 127.571C139.95 124.002 134.429 121.48 130.526 122.496ZM75.2055 126.859C74.9233 128.368 74.9517 131.851 75.2682 134.598C75.5847 137.345 75.9258 147.528 76.0265 157.228C76.184 172.441 76.3677 174.896 77.3634 175.096C77.9978 175.225 78.8301 174.718 79.2123 173.971C80.4595 171.534 80.8902 156.317 79.9945 146.314C79.5161 140.966 79.0943 133.888 79.0578 130.586C78.9958 125.002 78.8771 124.566 77.3544 124.348C75.9967 124.154 75.6302 124.582 75.2055 126.859ZM162.701 124.777C162.508 125.091 162.814 129.059 163.379 133.595C164.822 145.166 164.738 168.064 163.205 180.492C161.533 194.057 161.528 195.779 163.148 196.102C165.019 196.474 165.608 194.353 166.984 182.284C168.842 165.98 168.471 136.058 166.284 125.895C165.934 124.266 163.485 123.501 162.701 124.777ZM196.302 126.271C196.117 126.58 196.146 132.154 196.366 138.657C196.785 151.001 197.406 153.42 199.91 152.454C201.145 151.977 201.205 151.066 200.709 140.171C200.415 133.699 199.851 127.796 199.457 127.056C198.73 125.69 196.921 125.24 196.302 126.271ZM131.424 131.149C131.232 131.665 131.384 134.451 131.763 137.34C132.762 144.975 132.706 168.397 131.668 177.115C131.177 181.243 129.929 188.461 128.897 193.154C127 201.776 127.156 203.735 129.658 202.769C131.878 201.913 134.914 185.939 136.19 168.398C136.87 159.068 136.859 153.688 136.144 144.244C135.639 137.561 134.875 131.67 134.447 131.152C133.45 129.944 131.874 129.942 131.424 131.149ZM115.655 133.819C115.449 134.152 115.589 137.613 115.964 141.511C117.41 156.55 116.509 174.007 113.545 188.372C110.993 200.744 111.02 200.17 113.005 199.881C114.41 199.676 114.988 198.78 116.066 195.126C119.067 184.953 120.038 175.6 120.041 156.852C120.044 136.937 119.635 133.213 117.442 133.213C116.664 133.213 115.859 133.485 115.655 133.819ZM180.637 139.751C180.428 140.091 180.303 146.273 180.358 153.489C180.413 160.705 180.185 170.237 179.851 174.672C179.309 181.848 179.378 182.788 180.483 183.214C181.166 183.478 182.075 183.341 182.504 182.909C182.933 182.479 183.635 175.595 184.065 167.613C184.975 150.693 184.274 139.755 182.253 139.369C181.573 139.24 180.846 139.411 180.637 139.751ZM93.2323 152.857C93.0621 153.403 92.7187 157.903 92.468 162.856C92.2179 167.809 91.6805 174.057 91.2737 176.74C89.3972 189.111 89.3957 188.909 91.3819 188.627C92.9225 188.407 93.298 187.743 94.0645 183.869C95.4663 176.79 96.6591 163.361 96.3979 157.61C96.2023 153.322 95.9201 152.32 94.8505 152.114C94.131 151.977 93.4025 152.311 93.2323 152.857ZM108.877 167.687C108.639 168.074 108.108 171.198 107.697 174.629C107.286 178.06 106.227 184.338 105.344 188.58C104.111 194.506 103.943 196.498 104.619 197.178C106.192 198.76 107.647 196.184 109.181 189.098C109.983 185.397 111.04 179.21 111.53 175.35C112.279 169.457 112.255 168.225 111.381 167.669C110.038 166.813 109.411 166.818 108.877 167.687ZM141.027 168.35C140.82 168.688 140.116 173.315 139.463 178.633C138.812 183.951 137.624 191.315 136.825 194.997C136.026 198.678 135.554 201.987 135.776 202.349C136.495 203.517 138.257 203.048 139.101 201.463C140.26 199.285 142.559 186.851 143.587 177.207C144.305 170.453 144.281 168.932 143.446 168.4C142.168 167.586 141.506 167.572 141.027 168.35Z" fill="white"/>
</svg>
