<svg width="31" height="31" viewBox="0 0 31 31" fill="none" xmlns="http://www.w3.org/2000/svg">
<rect width="31" height="31" rx="15.5" fill="#005F37"/>
<g clip-path="url(#clip0_1725_1623)">
<path fill-rule="evenodd" clip-rule="evenodd" d="M9.25 21.25C9.41007 21.4101 9.62718 21.5 9.85355 21.5H22.5C22.7761 21.5 23 21.2761 23 21C23 20.7239 22.7761 20.5 22.5 20.5H11C10.4477 20.5 10 20.0523 10 19.5V8C10 7.72386 9.77614 7.5 9.5 7.5C9.22386 7.5 9 7.72386 9 8V20.6464C9 20.8728 9.08993 21.0899 9.25 21.25ZM11.1464 19.1464C11.0527 19.0527 11 18.9255 11 18.7929V11.2071C11 11.0745 11.0527 10.9473 11.1464 10.8536L11.3536 10.6464C11.4473 10.5527 11.5745 10.5 11.7071 10.5H13.2929C13.4255 10.5 13.5527 10.5527 13.6464 10.6464L13.8536 10.8536C13.9473 10.9473 14 11.0745 14 11.2071V18.7929C14 18.9255 13.9473 19.0527 13.8536 19.1464L13.6464 19.3536C13.5527 19.4473 13.4255 19.5 13.2929 19.5H11.7071C11.5745 19.5 11.4473 19.4473 11.3536 19.3536L11.1464 19.1464ZM12.5 18.5C12.7761 18.5 13 18.2761 13 18V12C13 11.7239 12.7761 11.5 12.5 11.5C12.2239 11.5 12 11.7239 12 12V18C12 18.2761 12.2239 18.5 12.5 18.5ZM19.1464 8.85355C19.0527 8.94732 19 9.0745 19 9.20711V18.7929C19 18.9255 19.0527 19.0527 19.1464 19.1464L19.3536 19.3536C19.4473 19.4473 19.5745 19.5 19.7071 19.5H21.2929C21.4255 19.5 21.5527 19.4473 21.6464 19.3536L21.8536 19.1464C21.9473 19.0527 22 18.9255 22 18.7929V9.20711C22 9.0745 21.9473 8.94732 21.8536 8.85355L21.6464 8.64645C21.5527 8.55268 21.4255 8.5 21.2929 8.5H19.7071C19.5745 8.5 19.4473 8.55268 19.3536 8.64645L19.1464 8.85355ZM20.5 9.5C20.7761 9.5 21 9.72386 21 10V18C21 18.2761 20.7761 18.5 20.5 18.5C20.2239 18.5 20 18.2761 20 18V10C20 9.72386 20.2239 9.5 20.5 9.5ZM15.1464 19.1464C15.0527 19.0527 15 18.9255 15 18.7929V13.2071C15 13.0745 15.0527 12.9473 15.1464 12.8536L15.3536 12.6464C15.4473 12.5527 15.5745 12.5 15.7071 12.5H17.2929C17.4255 12.5 17.5527 12.5527 17.6464 12.6464L17.8536 12.8536C17.9473 12.9473 18 13.0745 18 13.2071V18.7929C18 18.9255 17.9473 19.0527 17.8536 19.1464L17.6464 19.3536C17.5527 19.4473 17.4255 19.5 17.2929 19.5H15.7071C15.5745 19.5 15.4473 19.4473 15.3536 19.3536L15.1464 19.1464ZM16.5 18.5C16.7761 18.5 17 18.2761 17 18V14C17 13.7239 16.7761 13.5 16.5 13.5C16.2239 13.5 16 13.7239 16 14V18C16 18.2761 16.2239 18.5 16.5 18.5Z" fill="#00EA48"/>
</g>
<defs>
<clipPath id="clip0_1725_1623">
<rect width="16" height="16" fill="white" transform="translate(8 7.5)"/>
</clipPath>
</defs>
</svg>
