<svg width="64" height="64" viewBox="0 0 64 64" fill="none" xmlns="http://www.w3.org/2000/svg">
<rect width="64" height="64" rx="32" fill="#00EA48"/>
<path d="M32 30.6667C32.7333 30.6667 33.3613 30.4058 33.884 29.884C34.4067 29.3622 34.6676 28.7342 34.6667 28C34.6658 27.2658 34.4049 26.6382 33.884 26.1173C33.3631 25.5964 32.7351 25.3351 32 25.3333C31.2649 25.3316 30.6373 25.5929 30.1173 26.1173C29.5973 26.6418 29.336 27.2693 29.3333 28C29.3307 28.7307 29.592 29.3587 30.1173 29.884C30.6427 30.4093 31.2702 30.6702 32 30.6667ZM25.3333 44V41.3333H30.6667V37.2C29.5778 36.9556 28.6058 36.4947 27.7507 35.8173C26.8956 35.14 26.2676 34.2898 25.8667 33.2667C24.2 33.0667 22.8058 32.3391 21.684 31.084C20.5622 29.8289 20.0009 28.3564 20 26.6667V25.3333C20 24.6 20.2613 23.9724 20.784 23.4507C21.3067 22.9289 21.9342 22.6676 22.6667 22.6667H25.3333V20H38.6667V22.6667H41.3333C42.0667 22.6667 42.6947 22.928 43.2173 23.4507C43.74 23.9733 44.0009 24.6009 44 25.3333V26.6667C44 28.3556 43.4387 29.828 42.316 31.084C41.1933 32.34 39.7991 33.0676 38.1333 33.2667C37.7333 34.2889 37.1058 35.1391 36.2507 35.8173C35.3956 36.4956 34.4231 36.9564 33.3333 37.2V41.3333H38.6667V44H25.3333ZM25.3333 30.4V25.3333H22.6667V26.6667C22.6667 27.5111 22.9111 28.2724 23.4 28.9507C23.8889 29.6289 24.5333 30.112 25.3333 30.4ZM32 34.6667C33.1111 34.6667 34.0556 34.2778 34.8333 33.5C35.6111 32.7222 36 31.7778 36 30.6667V22.6667H28V30.6667C28 31.7778 28.3889 32.7222 29.1667 33.5C29.9444 34.2778 30.8889 34.6667 32 34.6667ZM38.6667 30.4C39.4667 30.1111 40.1111 29.6276 40.6 28.9493C41.0889 28.2711 41.3333 27.5102 41.3333 26.6667V25.3333H38.6667V30.4Z" fill="white"/>
</svg>
