<svg width="48" height="48" viewBox="0 0 48 48" fill="none" xmlns="http://www.w3.org/2000/svg">
<rect width="48" height="48" rx="24" fill="#154A34"/>
<path d="M15 16.5C15 16.1022 15.158 15.7206 15.4393 15.4393C15.7206 15.158 16.1022 15 16.5 15H29.1405L33 18.6035V31.5C33 31.8978 32.842 32.2794 32.5607 32.5607C32.2794 32.842 31.8978 33 31.5 33H16.5C16.1022 33 15.7206 32.842 15.4393 32.5607C15.158 32.2794 15 31.8978 15 31.5V16.5Z" stroke="#00EA48" stroke-linejoin="round"/>
<mask id="path-3-inside-1_7_12624" fill="white">
<path d="M24.004 15L24 18.6925C24 18.8625 23.776 19 23.5 19H19.5C19.224 19 19 18.8625 19 18.6925V15"/>
</mask>
<path d="M24 18.6925L23.5 18.692V18.6925H24ZM24.004 15L23.504 14.9995L23.5 18.692L24 18.6925L24.5 18.693L24.504 15.0005L24.004 15ZM24 18.6925H23.5C23.5 18.6204 23.5248 18.5636 23.5487 18.5289C23.5708 18.4968 23.5905 18.4847 23.5917 18.484C23.592 18.4838 23.5608 18.5 23.5 18.5V19V19.5C23.7152 19.5 23.934 19.4474 24.1153 19.336C24.2886 19.2295 24.5 19.0161 24.5 18.6925H24ZM23.5 19V18.5H19.5V19V19.5H23.5V19ZM19.5 19V18.5C19.4392 18.5 19.408 18.4838 19.4083 18.484C19.4095 18.4847 19.4292 18.4968 19.4513 18.5289C19.4752 18.5636 19.5 18.6204 19.5 18.6925H19H18.5C18.5 19.0161 18.7114 19.2295 18.8847 19.336C19.066 19.4474 19.2848 19.5 19.5 19.5V19ZM19 18.6925H19.5V15H19H18.5V18.6925H19Z" fill="#00EA48" mask="url(#path-3-inside-1_7_12624)"/>
<path d="M24.004 15L24 18.6925C24 18.8625 23.776 19 23.5 19H19.5C19.224 19 19 18.8625 19 18.6925V15H24.004Z" stroke="#00EA48" stroke-linejoin="round"/>
<path d="M16.5 15H29.1405M19 25H29M19 29H24.004" stroke="#00EA48" stroke-linecap="round" stroke-linejoin="round"/>
</svg>
