<svg width="16" height="17" viewBox="0 0 16 17" fill="none" xmlns="http://www.w3.org/2000/svg">
<path fill-rule="evenodd" clip-rule="evenodd" d="M8.77741 1.52573C8.29275 1.26909 7.70728 1.26909 7.22255 1.52573C6.42125 1.94998 4.77973 2.71375 2.81096 3.05599C2.08464 3.18225 1.5 3.80311 1.5 4.58209V7.86732C1.5 10.1945 2.68642 11.9723 3.99475 13.2222C5.30137 14.4705 6.76801 15.2316 7.43561 15.5412C7.79615 15.7084 8.20381 15.7084 8.56441 15.5412C9.23201 15.2316 10.6986 14.4705 12.0052 13.2222C13.3135 11.9723 14.5 10.1945 14.5 7.86732V4.58209C14.5 3.80311 13.9153 3.18225 13.189 3.05599C11.2203 2.71375 9.57875 1.94998 8.77741 1.52573ZM11.1789 6.26006C11.4146 5.97721 11.3764 5.55683 11.0935 5.32112C10.8107 5.08541 10.3903 5.12363 10.1546 5.40648L7.28861 8.84565L6.13815 7.69519C5.8778 7.43485 5.45569 7.43485 5.19534 7.69519C4.93499 7.95552 4.93499 8.37765 5.19534 8.63799L6.86201 10.3047C6.99448 10.4371 7.17648 10.5077 7.36361 10.4993C7.55075 10.4908 7.72568 10.4039 7.84555 10.2601L11.1789 6.26006Z" fill="white"/>
</svg>
