<svg width="64" height="64" viewBox="0 0 64 64" fill="none" xmlns="http://www.w3.org/2000/svg">
<rect width="64" height="64" rx="12" fill="#154A34"/>
<g clip-path="url(#clip0_7_12014)">
<path d="M34.5156 34.4219C33.599 33.6406 32.5833 33.0417 31.4688 32.625C30.3542 32.2083 29.1979 32 28 32C27.0833 32 26.1979 32.1198 25.3438 32.3594C24.4896 32.599 23.6927 32.9323 22.9531 33.3594C22.2135 33.7865 21.5417 34.3073 20.9375 34.9219C20.3333 35.5365 19.8125 36.2135 19.375 36.9531C18.9375 37.6927 18.599 38.4896 18.3594 39.3438C18.1198 40.1979 18 41.0833 18 42H16C16 40.75 16.1823 39.5469 16.5469 38.3906C16.9115 37.2344 17.4375 36.1667 18.125 35.1875C18.8125 34.2083 19.625 33.3385 20.5625 32.5781C21.5 31.8177 22.5625 31.2188 23.75 30.7812C22.5729 30.0104 21.6562 29.0417 21 27.875C20.3438 26.7083 20.0104 25.4167 20 24C20 22.8958 20.2083 21.8594 20.625 20.8906C21.0417 19.9219 21.6094 19.0729 22.3281 18.3438C23.0469 17.6146 23.8958 17.0417 24.875 16.625C25.8542 16.2083 26.8958 16 28 16C29.1042 16 30.1406 16.2083 31.1094 16.625C32.0781 17.0417 32.9271 17.6094 33.6562 18.3281C34.3854 19.0469 34.9583 19.8958 35.375 20.875C35.7917 21.8542 36 22.8958 36 24C36 24.6875 35.9167 25.3594 35.75 26.0156C35.5833 26.6719 35.3333 27.2917 35 27.875C34.6667 28.4583 34.276 28.9948 33.8281 29.4844C33.3802 29.974 32.8542 30.4062 32.25 30.7812C32.9271 31.0417 33.5729 31.3594 34.1875 31.7344C34.8021 32.1094 35.3802 32.5312 35.9219 33L34.5156 34.4219ZM22 24C22 24.8333 22.1562 25.6094 22.4688 26.3281C22.7812 27.0469 23.2083 27.6823 23.75 28.2344C24.2917 28.7865 24.9271 29.2188 25.6562 29.5312C26.3854 29.8438 27.1667 30 28 30C28.8229 30 29.599 29.8438 30.3281 29.5312C31.0573 29.2188 31.6927 28.7917 32.2344 28.25C32.776 27.7083 33.2083 27.0729 33.5312 26.3438C33.8542 25.6146 34.0104 24.8333 34 24C34 23.1771 33.8438 22.401 33.5312 21.6719C33.2188 20.9427 32.7917 20.3073 32.25 19.7656C31.7083 19.224 31.0677 18.7917 30.3281 18.4688C29.5885 18.1458 28.8125 17.9896 28 18C27.1667 18 26.3906 18.1562 25.6719 18.4688C24.9531 18.7812 24.3177 19.2083 23.7656 19.75C23.2135 20.2917 22.7812 20.9323 22.4688 21.6719C22.1562 22.4115 22 23.1875 22 24ZM43 28C43.6875 28 44.3333 28.1302 44.9375 28.3906C45.5417 28.651 46.0677 29.0104 46.5156 29.4688C46.9635 29.9271 47.3229 30.4583 47.5938 31.0625C47.8646 31.6667 48 32.3125 48 33C48 33.6875 47.8698 34.3333 47.6094 34.9375C47.349 35.5417 46.9896 36.0729 46.5312 36.5312C46.0729 36.9896 45.5417 37.349 44.9375 37.6094C44.3333 37.8698 43.6875 38 43 38C42.7604 38 42.526 37.9844 42.2969 37.9531L33.125 47.125C32.8438 47.4062 32.5208 47.6198 32.1562 47.7656C31.7917 47.9115 31.4062 47.9896 31 48C30.5833 48 30.1927 47.9219 29.8281 47.7656C29.4635 47.6094 29.1458 47.3958 28.875 47.125C28.6042 46.8542 28.3906 46.5365 28.2344 46.1719C28.0781 45.8073 28 45.4167 28 45C28 44.6042 28.0729 44.224 28.2188 43.8594C28.3646 43.4948 28.5833 43.1667 28.875 42.875L38.0469 33.7031C38.0156 33.474 38 33.2396 38 33C38 32.3125 38.1302 31.6667 38.3906 31.0625C38.651 30.4583 39.0052 29.9323 39.4531 29.4844C39.901 29.0365 40.4323 28.6771 41.0469 28.4062C41.6615 28.1354 42.3125 28 43 28ZM43 36C43.4167 36 43.8073 35.9219 44.1719 35.7656C44.5365 35.6094 44.8542 35.3958 45.125 35.125C45.3958 34.8542 45.6094 34.5365 45.7656 34.1719C45.9219 33.8073 46 33.4167 46 33C46 32.5729 45.901 32.1458 45.7031 31.7188L43.4219 34H42V32.5781L44.2812 30.2969C43.8542 30.099 43.4271 30 43 30C42.5833 30 42.1927 30.0781 41.8281 30.2344C41.4635 30.3906 41.1458 30.6042 40.875 30.875C40.6042 31.1458 40.3906 31.4635 40.2344 31.8281C40.0781 32.1927 40 32.5833 40 33C40 33.4271 40.099 33.8542 40.2969 34.2812L30.2969 44.2969C30.099 44.4948 30 44.7292 30 45C30 45.2708 30.099 45.5052 30.2969 45.7031C30.4948 45.901 30.7292 46 31 46C31.2708 46 31.5052 45.901 31.7031 45.7031L41.7188 35.7031C42.1458 35.901 42.5729 36 43 36Z" fill="#00EA48"/>
</g>
<defs>
<clipPath id="clip0_7_12014">
<rect width="32" height="32" fill="white" transform="translate(16 16)"/>
</clipPath>
</defs>
</svg>
