<svg width="189" height="64" viewBox="0 0 189 64" fill="none" xmlns="http://www.w3.org/2000/svg">
<rect width="189" height="64" rx="12" fill="#181C20"/>
<rect x="12" y="12" width="40" height="40" rx="20" fill="#06140F"/>
<path d="M41 26.5C41 28.1568 39.6569 29.5 38 29.5C36.3431 29.5 35 28.1568 35 26.5C35 24.8432 36.3431 23.5 38 23.5C39.6569 23.5 41 24.8432 41 26.5Z" stroke="#00EA48" stroke-opacity="0.51" stroke-width="1.5"/>
<path d="M29 32C29 33.6569 27.6568 35 26 35C24.3432 35 23 33.6569 23 32C23 30.3431 24.3432 29 26 29C27.6568 29 29 30.3431 29 32Z" stroke="#00EA48" stroke-opacity="0.51" stroke-width="1.5"/>
<path d="M41 37.5C41 39.1569 39.6569 40.5 38 40.5C36.3431 40.5 35 39.1569 35 37.5C35 35.8431 36.3431 34.5 38 34.5C39.6569 34.5 41 35.8431 41 37.5Z" stroke="#00EA48" stroke-opacity="0.51" stroke-width="1.5"/>
<path d="M28.7285 30.7495L35.2285 27.75M28.7285 33.25L35.2285 36.2495" stroke="#00EA48" stroke-opacity="0.51" stroke-width="1.5"/>
<path d="M67.625 29.4205C67.5644 28.8826 67.3144 28.4659 66.875 28.1705C66.4356 27.8712 65.8826 27.7216 65.2159 27.7216C64.7386 27.7216 64.3258 27.7973 63.9773 27.9489C63.6288 28.0966 63.358 28.3011 63.1648 28.5625C62.9754 28.8201 62.8807 29.1136 62.8807 29.4432C62.8807 29.7197 62.9451 29.9583 63.0739 30.1591C63.2064 30.3598 63.3788 30.5284 63.5909 30.6648C63.8068 30.7973 64.0379 30.9091 64.2841 31C64.5303 31.0871 64.767 31.1591 64.9943 31.2159L66.1307 31.5114C66.5019 31.6023 66.8826 31.7254 67.2727 31.8807C67.6629 32.036 68.0246 32.2405 68.358 32.4943C68.6913 32.7481 68.9602 33.0625 69.1648 33.4375C69.3731 33.8125 69.4773 34.2614 69.4773 34.7841C69.4773 35.4432 69.3068 36.0284 68.9659 36.5398C68.6288 37.0511 68.1383 37.4545 67.4943 37.75C66.8542 38.0455 66.0795 38.1932 65.1705 38.1932C64.2992 38.1932 63.5455 38.0549 62.9091 37.7784C62.2727 37.5019 61.7746 37.1098 61.4148 36.6023C61.0549 36.0909 60.8561 35.4848 60.8182 34.7841H62.5795C62.6136 35.2045 62.75 35.5549 62.9886 35.8352C63.2311 36.1117 63.5398 36.3182 63.9148 36.4545C64.2936 36.5871 64.7083 36.6534 65.1591 36.6534C65.6553 36.6534 66.0966 36.5758 66.483 36.4205C66.8731 36.2614 67.1799 36.0417 67.4034 35.7614C67.6269 35.4773 67.7386 35.1458 67.7386 34.767C67.7386 34.4223 67.6402 34.1402 67.4432 33.9205C67.25 33.7008 66.9867 33.5189 66.6534 33.375C66.3239 33.2311 65.9508 33.1042 65.5341 32.9943L64.1591 32.6193C63.2273 32.3655 62.4886 31.9924 61.9432 31.5C61.4015 31.0076 61.1307 30.3561 61.1307 29.5455C61.1307 28.875 61.3125 28.2898 61.6761 27.7898C62.0398 27.2898 62.5322 26.9015 63.1534 26.625C63.7746 26.3447 64.4754 26.2045 65.2557 26.2045C66.0436 26.2045 66.7386 26.3428 67.3409 26.6193C67.947 26.8958 68.4242 27.2765 68.7727 27.7614C69.1212 28.2424 69.303 28.7955 69.3182 29.4205H67.625ZM73.1378 32.8182V38H71.4389V26.3636H73.1151V30.6932H73.223C73.4276 30.2235 73.7401 29.8504 74.1605 29.5739C74.581 29.2973 75.1302 29.1591 75.8082 29.1591C76.4067 29.1591 76.9295 29.2822 77.3764 29.5284C77.8272 29.7746 78.1757 30.142 78.4219 30.6307C78.6719 31.1155 78.7969 31.7216 78.7969 32.4489V38H77.098V32.6534C77.098 32.0133 76.9332 31.517 76.6037 31.1648C76.2741 30.8087 75.8158 30.6307 75.2287 30.6307C74.8272 30.6307 74.4673 30.7159 74.1491 30.8864C73.8348 31.0568 73.5866 31.3068 73.4048 31.6364C73.2268 31.9621 73.1378 32.3561 73.1378 32.8182ZM83.6037 38.1932C83.0507 38.1932 82.5507 38.0909 82.1037 37.8864C81.6567 37.678 81.3026 37.3769 81.0412 36.983C80.7836 36.589 80.6548 36.1061 80.6548 35.5341C80.6548 35.0417 80.7495 34.6364 80.9389 34.3182C81.1283 34 81.384 33.7481 81.706 33.5625C82.0279 33.3769 82.3878 33.2367 82.7855 33.142C83.1832 33.0473 83.5885 32.9754 84.0014 32.9261C84.5241 32.8655 84.9484 32.8163 85.2741 32.7784C85.5999 32.7367 85.8366 32.6705 85.9844 32.5795C86.1321 32.4886 86.206 32.3409 86.206 32.1364V32.0966C86.206 31.6004 86.0658 31.2159 85.7855 30.9432C85.509 30.6705 85.0961 30.5341 84.5469 30.5341C83.9749 30.5341 83.5241 30.661 83.1946 30.9148C82.8688 31.1648 82.6435 31.4432 82.5185 31.75L80.9219 31.3864C81.1113 30.8561 81.3878 30.428 81.7514 30.1023C82.1188 29.7727 82.5412 29.5341 83.0185 29.3864C83.4957 29.2348 83.9976 29.1591 84.5241 29.1591C84.8726 29.1591 85.242 29.2008 85.6321 29.2841C86.026 29.3636 86.3935 29.5114 86.7344 29.7273C87.0791 29.9432 87.3613 30.2519 87.581 30.6534C87.8007 31.0511 87.9105 31.5682 87.9105 32.2045V38H86.2514V36.8068H86.1832C86.0734 37.0265 85.9086 37.2424 85.6889 37.4545C85.4692 37.6667 85.187 37.8428 84.8423 37.983C84.4976 38.1231 84.0848 38.1932 83.6037 38.1932ZM83.973 36.8295C84.4427 36.8295 84.8442 36.7367 85.1776 36.5511C85.5147 36.3655 85.7704 36.1231 85.9446 35.8239C86.1226 35.5208 86.2116 35.197 86.2116 34.8523V33.7273C86.151 33.7879 86.0336 33.8447 85.8594 33.8977C85.6889 33.947 85.4938 33.9905 85.2741 34.0284C85.0545 34.0625 84.8404 34.0947 84.6321 34.125C84.4238 34.1515 84.2495 34.1742 84.1094 34.1932C83.7798 34.2348 83.4787 34.3049 83.206 34.4034C82.937 34.5019 82.7211 34.6439 82.5582 34.8295C82.3991 35.0114 82.3196 35.2538 82.3196 35.5568C82.3196 35.9773 82.4749 36.2955 82.7855 36.5114C83.0961 36.7235 83.492 36.8295 83.973 36.8295ZM90.1733 38V29.2727H91.8153V30.6591H91.9062C92.0653 30.1894 92.3456 29.8201 92.7472 29.5511C93.1525 29.2784 93.6108 29.142 94.1222 29.142C94.2282 29.142 94.3532 29.1458 94.4972 29.1534C94.6449 29.161 94.7604 29.1705 94.8438 29.1818V30.8068C94.7756 30.7879 94.6544 30.767 94.4801 30.7443C94.3059 30.7178 94.1316 30.7045 93.9574 30.7045C93.5559 30.7045 93.1979 30.7898 92.8835 30.9602C92.5729 31.1269 92.3267 31.3598 92.1449 31.6591C91.9631 31.9545 91.8722 32.2917 91.8722 32.6705V38H90.1733ZM99.7628 38.1761C98.9029 38.1761 98.1624 37.9924 97.5412 37.625C96.9238 37.2538 96.4465 36.733 96.1094 36.0625C95.776 35.3883 95.6094 34.5985 95.6094 33.6932C95.6094 32.7992 95.776 32.0114 96.1094 31.3295C96.4465 30.6477 96.9162 30.1155 97.5185 29.733C98.1245 29.3504 98.8329 29.1591 99.6435 29.1591C100.136 29.1591 100.613 29.2405 101.075 29.4034C101.537 29.5663 101.952 29.822 102.32 30.1705C102.687 30.5189 102.977 30.9716 103.189 31.5284C103.401 32.0814 103.507 32.7538 103.507 33.5455V34.1477H96.5696V32.875H101.842C101.842 32.428 101.751 32.0322 101.57 31.6875C101.388 31.339 101.132 31.0644 100.803 30.8636C100.477 30.6629 100.094 30.5625 99.6548 30.5625C99.1776 30.5625 98.7609 30.6799 98.4048 30.9148C98.0526 31.1458 97.7798 31.4489 97.5866 31.8239C97.3973 32.1951 97.3026 32.5985 97.3026 33.0341V34.0284C97.3026 34.6117 97.4048 35.108 97.6094 35.517C97.8177 35.9261 98.1075 36.2386 98.4787 36.4545C98.8499 36.6667 99.2836 36.7727 99.7798 36.7727C100.102 36.7727 100.395 36.7273 100.661 36.6364C100.926 36.5417 101.155 36.4015 101.348 36.2159C101.541 36.0303 101.689 35.8011 101.791 35.5284L103.399 35.8182C103.27 36.2917 103.039 36.7064 102.706 37.0625C102.376 37.4148 101.962 37.6894 101.462 37.8864C100.965 38.0795 100.399 38.1761 99.7628 38.1761ZM109.763 38V26.3636H113.911C114.812 26.3636 115.56 26.5189 116.155 26.8295C116.753 27.1402 117.2 27.5701 117.496 28.1193C117.791 28.6648 117.939 29.2955 117.939 30.0114C117.939 30.7235 117.789 31.3504 117.49 31.892C117.195 32.4299 116.748 32.8485 116.149 33.1477C115.554 33.447 114.806 33.5966 113.905 33.5966H110.763V32.0852H113.746C114.314 32.0852 114.776 32.0038 115.132 31.8409C115.492 31.678 115.755 31.4413 115.922 31.1307C116.089 30.8201 116.172 30.447 116.172 30.0114C116.172 29.572 116.087 29.1913 115.916 28.8693C115.75 28.5473 115.486 28.3011 115.126 28.1307C114.77 27.9564 114.303 27.8693 113.723 27.8693H111.518V38H109.763ZM115.507 32.75L118.382 38H116.382L113.564 32.75H115.507ZM123.591 38.1761C122.731 38.1761 121.991 37.9924 121.369 37.625C120.752 37.2538 120.275 36.733 119.938 36.0625C119.604 35.3883 119.438 34.5985 119.438 33.6932C119.438 32.7992 119.604 32.0114 119.938 31.3295C120.275 30.6477 120.744 30.1155 121.347 29.733C121.953 29.3504 122.661 29.1591 123.472 29.1591C123.964 29.1591 124.441 29.2405 124.903 29.4034C125.366 29.5663 125.78 29.822 126.148 30.1705C126.515 30.5189 126.805 30.9716 127.017 31.5284C127.229 32.0814 127.335 32.7538 127.335 33.5455V34.1477H120.398V32.875H125.67C125.67 32.428 125.58 32.0322 125.398 31.6875C125.216 31.339 124.96 31.0644 124.631 30.8636C124.305 30.6629 123.922 30.5625 123.483 30.5625C123.006 30.5625 122.589 30.6799 122.233 30.9148C121.881 31.1458 121.608 31.4489 121.415 31.8239C121.225 32.1951 121.131 32.5985 121.131 33.0341V34.0284C121.131 34.6117 121.233 35.108 121.438 35.517C121.646 35.9261 121.936 36.2386 122.307 36.4545C122.678 36.6667 123.112 36.7727 123.608 36.7727C123.93 36.7727 124.223 36.7273 124.489 36.6364C124.754 36.5417 124.983 36.4015 125.176 36.2159C125.369 36.0303 125.517 35.8011 125.619 35.5284L127.227 35.8182C127.098 36.2917 126.867 36.7064 126.534 37.0625C126.205 37.4148 125.79 37.6894 125.29 37.8864C124.794 38.0795 124.227 38.1761 123.591 38.1761ZM132.896 38.1761C132.052 38.1761 131.324 37.9848 130.714 37.6023C130.108 37.2159 129.643 36.6837 129.317 36.0057C128.991 35.3277 128.828 34.5511 128.828 33.6761C128.828 32.7898 128.995 32.0076 129.328 31.3295C129.661 30.6477 130.131 30.1155 130.737 29.733C131.343 29.3504 132.057 29.1591 132.879 29.1591C133.542 29.1591 134.133 29.2822 134.652 29.5284C135.171 29.7708 135.589 30.1117 135.908 30.5511C136.23 30.9905 136.421 31.5038 136.482 32.0909H134.828C134.737 31.6818 134.529 31.3295 134.203 31.0341C133.881 30.7386 133.449 30.5909 132.908 30.5909C132.434 30.5909 132.019 30.7159 131.663 30.9659C131.311 31.2121 131.036 31.5644 130.839 32.0227C130.643 32.4773 130.544 33.0152 130.544 33.6364C130.544 34.2727 130.641 34.822 130.834 35.2841C131.027 35.7462 131.3 36.1042 131.652 36.358C132.008 36.6117 132.427 36.7386 132.908 36.7386C133.23 36.7386 133.521 36.6799 133.783 36.5625C134.048 36.4413 134.269 36.2689 134.447 36.0455C134.629 35.822 134.756 35.553 134.828 35.2386H136.482C136.421 35.803 136.237 36.3068 135.93 36.75C135.624 37.1932 135.213 37.5417 134.697 37.7955C134.186 38.0492 133.586 38.1761 132.896 38.1761ZM142.06 38.1761C141.2 38.1761 140.459 37.9924 139.838 37.625C139.221 37.2538 138.743 36.733 138.406 36.0625C138.073 35.3883 137.906 34.5985 137.906 33.6932C137.906 32.7992 138.073 32.0114 138.406 31.3295C138.743 30.6477 139.213 30.1155 139.815 29.733C140.421 29.3504 141.13 29.1591 141.94 29.1591C142.433 29.1591 142.91 29.2405 143.372 29.4034C143.834 29.5663 144.249 29.822 144.616 30.1705C144.984 30.5189 145.274 30.9716 145.486 31.5284C145.698 32.0814 145.804 32.7538 145.804 33.5455V34.1477H138.866V32.875H144.139C144.139 32.428 144.048 32.0322 143.866 31.6875C143.685 31.339 143.429 31.0644 143.099 30.8636C142.774 30.6629 142.391 30.5625 141.952 30.5625C141.474 30.5625 141.058 30.6799 140.702 30.9148C140.349 31.1458 140.077 31.4489 139.884 31.8239C139.694 32.1951 139.599 32.5985 139.599 33.0341V34.0284C139.599 34.6117 139.702 35.108 139.906 35.517C140.115 35.9261 140.404 36.2386 140.776 36.4545C141.147 36.6667 141.58 36.7727 142.077 36.7727C142.399 36.7727 142.692 36.7273 142.957 36.6364C143.223 36.5417 143.452 36.4015 143.645 36.2159C143.838 36.0303 143.986 35.8011 144.088 35.5284L145.696 35.8182C145.567 36.2917 145.336 36.7064 145.003 37.0625C144.673 37.4148 144.259 37.6894 143.759 37.8864C143.262 38.0795 142.696 38.1761 142.06 38.1761ZM147.689 38V29.2727H149.388V38H147.689ZM148.547 27.9261C148.251 27.9261 147.998 27.8277 147.786 27.6307C147.577 27.4299 147.473 27.1913 147.473 26.9148C147.473 26.6345 147.577 26.3958 147.786 26.1989C147.998 25.9981 148.251 25.8977 148.547 25.8977C148.842 25.8977 149.094 25.9981 149.303 26.1989C149.515 26.3958 149.621 26.6345 149.621 26.9148C149.621 27.1913 149.515 27.4299 149.303 27.6307C149.094 27.8277 148.842 27.9261 148.547 27.9261ZM151.673 41.2727V29.2727H153.332V30.6875H153.474C153.573 30.5057 153.715 30.2955 153.901 30.0568C154.086 29.8182 154.344 29.6098 154.673 29.4318C155.003 29.25 155.438 29.1591 155.98 29.1591C156.685 29.1591 157.313 29.3371 157.866 29.6932C158.42 30.0492 158.853 30.5625 159.168 31.233C159.486 31.9034 159.645 32.7102 159.645 33.6534C159.645 34.5966 159.488 35.4053 159.173 36.0795C158.859 36.75 158.427 37.267 157.878 37.6307C157.329 37.9905 156.702 38.1705 155.997 38.1705C155.467 38.1705 155.033 38.0814 154.696 37.9034C154.363 37.7254 154.101 37.517 153.912 37.2784C153.723 37.0398 153.577 36.8277 153.474 36.642H153.372V41.2727H151.673ZM153.338 33.6364C153.338 34.25 153.427 34.7879 153.605 35.25C153.783 35.7121 154.041 36.0739 154.378 36.3352C154.715 36.5928 155.128 36.7216 155.616 36.7216C156.124 36.7216 156.548 36.5871 156.889 36.3182C157.23 36.0455 157.488 35.6761 157.662 35.2102C157.84 34.7443 157.929 34.2197 157.929 33.6364C157.929 33.0606 157.842 32.5436 157.668 32.0852C157.497 31.6269 157.24 31.2652 156.895 31C156.554 30.7348 156.128 30.6023 155.616 30.6023C155.124 30.6023 154.707 30.7292 154.366 30.983C154.029 31.2367 153.774 31.5909 153.599 32.0455C153.425 32.5 153.338 33.0303 153.338 33.6364ZM165.622 29.2727V30.6364H160.855V29.2727H165.622ZM162.134 27.1818H163.832V35.4375C163.832 35.767 163.882 36.0152 163.98 36.1818C164.079 36.3447 164.205 36.4564 164.361 36.517C164.52 36.5739 164.692 36.6023 164.878 36.6023C165.014 36.6023 165.134 36.5928 165.236 36.5739C165.338 36.5549 165.418 36.5398 165.474 36.5284L165.781 37.9318C165.683 37.9697 165.543 38.0076 165.361 38.0455C165.179 38.0871 164.952 38.1098 164.679 38.1136C164.232 38.1212 163.815 38.0417 163.429 37.875C163.043 37.7083 162.73 37.4508 162.491 37.1023C162.253 36.7538 162.134 36.3163 162.134 35.7898V27.1818Z" fill="white"/>
</svg>
