<svg width="25" height="24" viewBox="0 0 25 24" fill="none" xmlns="http://www.w3.org/2000/svg">
<rect x="1.25" y="0.75" width="22.5" height="22.5" rx="3.75" stroke="white" stroke-opacity="0.7" stroke-width="1.5"/>
<path d="M19.9404 7.965C19.8643 7.78174 19.7187 7.63611 19.5354 7.56C19.4453 7.52157 19.3485 7.50118 19.2504 7.5H15.5004C15.3015 7.5 15.1108 7.57902 14.9701 7.71967C14.8295 7.86032 14.7504 8.05109 14.7504 8.25C14.7504 8.44891 14.8295 8.63968 14.9701 8.78033C15.1108 8.92098 15.3015 9 15.5004 9H17.4429L13.2504 13.1925L10.7829 10.7175C10.7132 10.6472 10.6303 10.5914 10.5389 10.5533C10.4475 10.5153 10.3495 10.4957 10.2504 10.4957C10.1514 10.4957 10.0534 10.5153 9.96201 10.5533C9.87062 10.5914 9.78766 10.6472 9.71794 10.7175L5.21794 15.2175C5.14765 15.2872 5.09185 15.3702 5.05377 15.4616C5.0157 15.553 4.99609 15.651 4.99609 15.75C4.99609 15.849 5.0157 15.947 5.05377 16.0384C5.09185 16.1298 5.14765 16.2128 5.21794 16.2825C5.28766 16.3528 5.37062 16.4086 5.46201 16.4467C5.5534 16.4847 5.65143 16.5043 5.75044 16.5043C5.84945 16.5043 5.94748 16.4847 6.03887 16.4467C6.13027 16.4086 6.21322 16.3528 6.28294 16.2825L10.2504 12.3075L12.7179 14.7825C12.7877 14.8528 12.8706 14.9086 12.962 14.9467C13.0534 14.9847 13.1514 15.0043 13.2504 15.0043C13.3495 15.0043 13.4475 14.9847 13.5389 14.9467C13.6303 14.9086 13.7132 14.8528 13.7829 14.7825L18.5004 10.0575V12C18.5004 12.1989 18.5795 12.3897 18.7201 12.5303C18.8608 12.671 19.0515 12.75 19.2504 12.75C19.4494 12.75 19.6401 12.671 19.7808 12.5303C19.9214 12.3897 20.0004 12.1989 20.0004 12V8.25C19.9993 8.15199 19.9789 8.05517 19.9404 7.965Z" fill="white" fill-opacity="0.7"/>
</svg>
