<svg width="259" height="289" viewBox="0 0 259 289" fill="none" xmlns="http://www.w3.org/2000/svg">
<rect width="259" height="289" rx="20" fill="#001306"/>
<path d="M68.9062 70.9375C64.6711 70.9375 60.6094 72.6199 57.6146 75.6146C54.6199 78.6094 52.9375 82.6711 52.9375 86.9062V114.281C52.9375 116.096 52.2165 117.837 50.933 119.121C49.6496 120.404 47.9088 121.125 46.0938 121.125C44.2787 121.125 42.5379 120.404 41.2545 119.121C39.971 117.837 39.25 116.096 39.25 114.281V86.9062C39.25 79.0409 42.3745 71.4977 47.9361 65.9361C53.4977 60.3745 61.0409 57.25 68.9062 57.25H96.2812C98.0963 57.25 99.8371 57.971 101.121 59.2545C102.404 60.5379 103.125 62.2787 103.125 64.0938C103.125 65.9088 102.404 67.6496 101.121 68.933C99.8371 70.2165 98.0963 70.9375 96.2812 70.9375H68.9062ZM68.9062 226.062C64.6711 226.062 60.6094 224.38 57.6146 221.385C54.6199 218.391 52.9375 214.329 52.9375 210.094V182.719C52.9375 180.904 52.2165 179.163 50.933 177.879C49.6496 176.596 47.9088 175.875 46.0938 175.875C44.2787 175.875 42.5379 176.596 41.2545 177.879C39.971 179.163 39.25 180.904 39.25 182.719V210.094C39.25 213.988 40.0171 217.845 41.5074 221.443C42.9978 225.041 45.1823 228.31 47.9361 231.064C50.69 233.818 53.9592 236.002 57.5573 237.493C61.1554 238.983 65.0117 239.75 68.9062 239.75H96.2812C98.0963 239.75 99.8371 239.029 101.121 237.746C102.404 236.462 103.125 234.721 103.125 232.906C103.125 231.091 102.404 229.35 101.121 228.067C99.8371 226.784 98.0963 226.062 96.2812 226.062H68.9062ZM208.062 86.9062C208.062 82.6711 206.38 78.6094 203.385 75.6146C200.391 72.6199 196.329 70.9375 192.094 70.9375H164.719C162.904 70.9375 161.163 70.2165 159.879 68.933C158.596 67.6496 157.875 65.9088 157.875 64.0938C157.875 62.2787 158.596 60.5379 159.879 59.2545C161.163 57.971 162.904 57.25 164.719 57.25H192.094C195.988 57.25 199.845 58.0171 203.443 59.5074C207.041 60.9978 210.31 63.1823 213.064 65.9361C215.818 68.69 218.002 71.9592 219.493 75.5573C220.983 79.1554 221.75 83.0117 221.75 86.9062V114.281C221.75 116.096 221.029 117.837 219.746 119.121C218.462 120.404 216.721 121.125 214.906 121.125C213.091 121.125 211.35 120.404 210.067 119.121C208.784 117.837 208.062 116.096 208.062 114.281V86.9062ZM192.094 226.062C196.329 226.062 200.391 224.38 203.385 221.385C206.38 218.391 208.062 214.329 208.062 210.094V182.719C208.062 180.904 208.784 179.163 210.067 177.879C211.35 176.596 213.091 175.875 214.906 175.875C216.721 175.875 218.462 176.596 219.746 177.879C221.029 179.163 221.75 180.904 221.75 182.719V210.094C221.75 213.988 220.983 217.845 219.493 221.443C218.002 225.041 215.818 228.31 213.064 231.064C210.31 233.818 207.041 236.002 203.443 237.493C199.845 238.983 195.988 239.75 192.094 239.75H164.719C162.904 239.75 161.163 239.029 159.879 237.746C158.596 236.462 157.875 234.721 157.875 232.906C157.875 231.091 158.596 229.35 159.879 228.067C161.163 226.784 162.904 226.062 164.719 226.062H192.094ZM124.021 97.619C126.43 92.0071 133.721 84.8075 143.905 87.4446C150.292 89.1054 154.891 92.9287 157.492 98.1939C159.755 102.775 160.138 107.775 160.229 111.571C160.302 115.194 159.718 119.127 158.97 122.649H160.74C174.957 122.649 186.491 135.725 182.02 149.942L171.526 183.285C167.283 196.817 152.363 203.816 138.886 199.865L97.7139 187.792C94.5462 186.887 91.6236 185.279 89.1637 183.088C86.7038 180.896 84.77 178.178 83.5062 175.136L79.5095 165.199C75.5036 155.252 79.8745 144.339 89.1364 139.238L103.207 131.482L103.481 131.281C103.946 130.916 104.786 130.195 105.881 129.046C108.062 126.746 111.319 122.658 114.659 116.006C116.283 112.794 117.643 110.257 118.847 108.031V108.012C120.791 104.408 122.297 101.625 124.012 97.619M109.859 143.445L95.7337 151.228C92.1294 153.218 90.9522 156.986 92.1932 160.089L96.1991 170.026C97.0204 172.088 98.9275 173.886 101.556 174.652L142.728 186.725C149.754 188.787 156.661 184.918 158.468 179.178L168.962 145.836C170.258 141.674 167.046 136.346 160.731 136.346H150.082C149.008 136.346 147.949 136.093 146.991 135.609C146.033 135.124 145.202 134.421 144.566 133.555C143.93 132.69 143.506 131.687 143.33 130.628C143.153 129.569 143.228 128.483 143.549 127.458C144.023 125.943 144.507 124.255 144.945 122.521C145.912 118.652 146.587 114.765 146.533 111.854C146.46 108.514 146.076 106.032 145.21 104.253C144.434 102.693 143.138 101.397 140.455 100.694C140.095 100.59 139.716 100.566 139.346 100.624C138.975 100.682 138.622 100.821 138.311 101.032C137.547 101.514 136.944 102.213 136.577 103.039C134.606 107.611 132.863 110.85 130.92 114.445L130.892 114.509C129.688 116.736 128.41 119.127 126.877 122.165C122.935 130.004 118.902 135.196 115.8 138.472C114.248 140.105 112.925 141.255 111.967 142.012C111.595 142.313 111.212 142.599 110.817 142.87L110.763 142.906L110.635 142.989L110.525 143.062L110.452 143.107L110.443 143.116L109.859 143.445Z" fill="#3DFC77"/>
</svg>
