<svg width="44" height="43" viewBox="0 0 44 43" fill="none" xmlns="http://www.w3.org/2000/svg">
<rect x="0.5" width="43" height="43" rx="21.5" fill="#154A34"/>
<path d="M22.5 17H29.5C30.0304 17 30.5391 17.2107 30.9142 17.5858C31.2893 17.9609 31.5 18.4696 31.5 19V27C31.5 27.5304 31.2893 28.0391 30.9142 28.4142C30.5391 28.7893 30.0304 29 29.5 29H15.5C14.9696 29 14.4609 28.7893 14.0858 28.4142C13.7107 28.0391 13.5 27.5304 13.5 27V19C13.5 18.4696 13.7107 17.9609 14.0858 17.5858C14.4609 17.2107 14.9696 17 15.5 17H22.5ZM22.5 17L18.5 13M22.5 17L26.5 13" stroke="#00EA48" stroke-width="2" stroke-linecap="round" stroke-linejoin="round"/>
</svg>
