<svg width="16" height="17" viewBox="0 0 16 17" fill="none" xmlns="http://www.w3.org/2000/svg">
<path fill-rule="evenodd" clip-rule="evenodd" d="M3.67988 4.97524C4.81697 4.08753 6.28597 3.33325 7.99967 3.33325C9.71341 3.33325 11.1823 4.08753 12.3195 4.97524C13.4576 5.86376 14.2988 6.91308 14.7694 7.57292L14.8049 7.62238C14.9737 7.85712 15.1663 8.12512 15.1663 8.49992C15.1663 8.87472 14.9737 9.14272 14.8049 9.37745L14.7694 9.42692C14.2988 10.0868 13.4576 11.1361 12.3195 12.0246C11.1823 12.9123 9.71341 13.6666 7.99967 13.6666C6.28597 13.6666 4.81697 12.9123 3.67988 12.0246C2.54176 11.1361 1.70051 10.0868 1.22995 9.42692L1.19447 9.37745C1.0257 9.14272 0.833008 8.87472 0.833008 8.49992C0.833008 8.12512 1.0257 7.85712 1.19447 7.62238L1.22995 7.57292C1.70051 6.91308 2.54176 5.86376 3.67988 4.97524ZM5.66634 8.49992C5.66634 9.78858 6.71101 10.8333 7.99967 10.8333C9.28834 10.8333 10.333 9.78858 10.333 8.49992C10.333 7.21125 9.28834 6.16659 7.99967 6.16659C6.71101 6.16659 5.66634 7.21125 5.66634 8.49992Z" fill="white"/>
</svg>
